<svg width="166" height="36" viewBox="0 0 166 36" fill="none" xmlns="http://www.w3.org/2000/svg">
<path d="M25.6112 12.2812C22.8824 11.1187 19.2162 10.3687 15.2987 10.1625C14.6737 10.125 14.0649 10.1125 13.4862 10.1125C16.3837 6.57499 19.4887 4.19999 21.5324 4.12499C21.9349 4.10874 22.2762 4.19374 22.5487 4.36999C23.4312 4.94249 23.6799 6.57999 23.2299 8.85749C23.1799 9.16999 23.3799 9.47374 23.6799 9.53249C23.9924 9.59499 24.2924 9.39499 24.3549 9.08249C24.9174 6.23249 24.5049 4.27499 23.1799 3.40999C22.7049 3.09999 22.1299 2.95374 21.4924 2.97749C18.9299 3.07374 15.3174 5.85249 12.0049 10.1275C10.5624 10.1712 9.20492 10.29 7.96492 10.4862C7.15742 6.86499 7.47742 4.26499 8.70742 3.63999C8.87992 3.54874 9.06367 3.50249 9.27867 3.48499C10.1499 3.41749 11.3537 3.97874 12.6662 5.07249C12.9087 5.27249 13.2737 5.24749 13.4737 4.99749C13.5217 4.93963 13.5579 4.87288 13.5801 4.80104C13.6023 4.72921 13.6101 4.6537 13.6032 4.57883C13.5962 4.50396 13.5746 4.4312 13.5395 4.36469C13.5044 4.29819 13.4565 4.23925 13.3987 4.19124C11.8237 2.88749 10.3712 2.24999 9.18367 2.33749C8.83487 2.36574 8.49442 2.45901 8.17992 2.61249C6.69242 3.37124 6.09242 5.52124 6.46742 8.65999C6.55492 9.30999 6.66742 9.98749 6.82992 10.685C2.72867 11.505 0.116174 13.1475 0.0036739 15.215C-0.0713261 16.6775 1.08492 18.07 3.35367 19.2425C3.42113 19.2834 3.49628 19.31 3.57446 19.3207C3.65264 19.3313 3.73217 19.3257 3.80811 19.3043C3.88404 19.2829 3.95475 19.246 4.01584 19.1961C4.07693 19.1462 4.12709 19.0842 4.1632 19.0141C4.19931 18.9439 4.22059 18.8671 4.22573 18.7883C4.23086 18.7096 4.21974 18.6307 4.19305 18.5564C4.16636 18.4822 4.12468 18.4142 4.07059 18.3567C4.01651 18.2993 3.95118 18.2536 3.87867 18.2225C2.06617 17.2887 1.09117 16.2375 1.14992 15.275C1.21242 13.925 3.36492 12.5375 7.09992 11.8C7.43742 13.0425 7.87492 14.34 8.41242 15.6625C7.13992 18.0225 6.21742 20.3462 5.74117 22.4125C5.04117 25.4937 5.41617 27.6875 6.81617 28.5975C7.26617 28.89 7.79117 29.035 8.37492 29.035C9.54367 29.035 10.9587 28.46 12.5587 27.32C12.6236 27.278 12.6794 27.2234 12.7226 27.1593C12.7659 27.0952 12.7957 27.023 12.8103 26.9471C12.8249 26.8712 12.8239 26.7931 12.8075 26.7175C12.7911 26.642 12.7595 26.5705 12.7148 26.5075C12.67 26.4445 12.6129 26.3912 12.547 26.3508C12.481 26.3104 12.4076 26.2839 12.3311 26.2726C12.2546 26.2614 12.1766 26.2658 12.1019 26.2856C12.0271 26.3053 11.9572 26.34 11.8962 26.3875C9.96617 27.7662 8.34117 28.2275 7.44367 27.6412C6.49367 27.0225 6.28617 25.2125 6.86867 22.6712C7.26867 20.9387 8.00242 19.0087 9.00367 17.0212C9.25367 17.5687 9.51617 18.1162 9.79117 18.6625C11.5724 22.1575 13.7537 25.1962 15.9287 27.2187C17.6612 28.8312 19.2712 29.6725 20.5974 29.6725C21.0349 29.6725 21.4474 29.5787 21.8174 29.3937C23.2487 28.6625 23.8674 26.6312 23.5649 23.675C23.2849 20.9087 22.2399 17.5375 20.6224 14.175C20.5542 14.0418 20.4367 13.9405 20.2949 13.8925C20.1531 13.8446 19.9982 13.8538 19.8631 13.9183C19.728 13.9827 19.6234 14.0973 19.5715 14.2377C19.5195 14.378 19.5243 14.5331 19.5849 14.67C22.9474 21.6725 23.1849 27.4075 21.2974 28.37C19.3099 29.3862 14.5174 25.4262 10.8099 18.145C10.3849 17.3262 10.0137 16.52 9.68492 15.7325C10.1099 14.9725 10.5599 14.2075 11.0537 13.445C11.5474 12.69 12.0612 11.96 12.5837 11.2637H13.0762C13.7512 11.2637 14.4837 11.2762 15.2437 11.3237C23.4062 11.7525 28.9624 14.5237 28.8487 16.7412C28.7987 17.6975 27.6937 18.6637 25.8174 19.3912C25.6764 19.4481 25.5634 19.558 25.5026 19.6973C25.4418 19.8366 25.4382 19.9942 25.4924 20.1362C25.5191 20.2068 25.5596 20.2713 25.6114 20.326C25.6633 20.3808 25.7255 20.4247 25.7945 20.4552C25.8635 20.4856 25.9378 20.5021 26.0132 20.5036C26.0886 20.505 26.1636 20.4915 26.2337 20.4637C28.6149 19.5387 29.9212 18.2687 29.9962 16.8012C30.0837 15.1387 28.5337 13.5387 25.6212 12.3012V12.2887L25.6112 12.2812ZM10.0912 12.8125C9.75367 13.3312 9.44117 13.8462 9.13617 14.3675C8.78964 13.46 8.48802 12.5359 8.23242 11.5987C9.12367 11.4612 10.0887 11.3612 11.1199 11.2987C10.7699 11.7862 10.4274 12.2912 10.0949 12.8112V12.7987L10.0912 12.8125ZM14.9974 14.2812C14.5416 14.2812 14.1044 14.4623 13.7821 14.7847C13.4598 15.107 13.2787 15.5442 13.2787 16C13.2787 16.4558 13.4598 16.893 13.7821 17.2153C14.1044 17.5377 14.5416 17.7187 14.9974 17.7187C15.4533 17.7187 15.8904 17.5377 16.2128 17.2153C16.5351 16.893 16.7162 16.4558 16.7162 16C16.7162 15.5442 16.5351 15.107 16.2128 14.7847C15.8904 14.4623 15.4533 14.2812 14.9974 14.2812Z" fill="#B8B8B8"/>
<path d="M54.7324 21.2656L49.8809 9.24219L45.0293 21.2656H54.7324ZM59.918 29H57.8789L55.5059 23.1465H44.2559L41.8828 29H39.8438L49.8809 4.19727L59.918 29ZM76.6172 4.67188V6.57031H67.6875V29H65.7891V6.57031H56.7539V4.67188H76.6172ZM89.5195 6.06055C86.543 6.06055 84 7.10938 81.8906 9.20703C79.7812 11.3281 78.7266 13.8711 78.7266 16.8359C78.7266 19.8008 79.7812 22.3438 81.8906 24.4648C84 26.5625 86.543 27.6113 89.5195 27.6113C92.4844 27.6113 95.0215 26.5625 97.1309 24.4648C99.2402 22.3438 100.295 19.8008 100.295 16.8359C100.295 13.8711 99.2402 11.3281 97.1309 9.20703C95.0215 7.10938 92.4844 6.06055 89.5195 6.06055ZM89.5195 29.4746C87.7969 29.4746 86.1562 29.1465 84.5977 28.4902C83.0859 27.8457 81.75 26.9375 80.5898 25.7656C79.418 24.6055 78.5098 23.2695 77.8652 21.7578C77.1973 20.1875 76.8633 18.5469 76.8633 16.8359C76.8633 15.125 77.1973 13.4902 77.8652 11.9316C78.5098 10.4082 79.418 9.06641 80.5898 7.90625C81.75 6.73437 83.0859 5.83203 84.5977 5.19922C86.1562 4.53125 87.7969 4.19727 89.5195 4.19727C91.2305 4.19727 92.8652 4.53125 94.4238 5.19922C95.9355 5.83203 97.2715 6.73437 98.4316 7.90625C99.6152 9.06641 100.523 10.4082 101.156 11.9316C101.824 13.4902 102.158 15.125 102.158 16.8359C102.158 18.5469 101.824 20.1875 101.156 21.7578C100.523 23.2695 99.6152 24.6055 98.4316 25.7656C97.2715 26.9375 95.9355 27.8457 94.4238 28.4902C92.8652 29.1465 91.2305 29.4746 89.5195 29.4746ZM131.619 29H129.668L125.414 11.3867L118.172 29.1934L111.035 11.4043L106.799 29H104.848L110.596 5.12891L118.189 24.0957L125.889 5.14648L131.619 29ZM136.031 29V4.67188H137.93V29H136.031ZM162.979 28.877L144.891 9.64648V29H142.992V4.84766L161.08 24.0957V4.67188H162.979V28.877Z" fill="#B8B8B8"/>
</svg>
