<svg width="30" height="30" viewBox="0 0 30 30" fill="none" xmlns="http://www.w3.org/2000/svg">
<g id="atom 1">
<path id="Vector" d="M25.6112 11.2813C22.8824 10.1188 19.2162 9.36877 15.2987 9.16252C14.6737 9.12502 14.0649 9.11252 13.4862 9.11252C16.3837 5.57502 19.4887 3.20002 21.5324 3.12502C21.9349 3.10877 22.2762 3.19377 22.5487 3.37002C23.4312 3.94252 23.6799 5.58002 23.2299 7.85752C23.1799 8.17002 23.3799 8.47377 23.6799 8.53252C23.9924 8.59502 24.2924 8.39502 24.3549 8.08252C24.9174 5.23252 24.5049 3.27502 23.1799 2.41002C22.7049 2.10002 22.1299 1.95377 21.4924 1.97752C18.9299 2.07377 15.3174 4.85252 12.0049 9.12752C10.5624 9.17127 9.20492 9.29002 7.96492 9.48627C7.15742 5.86502 7.47742 3.26502 8.70742 2.64002C8.87992 2.54877 9.06367 2.50252 9.27867 2.48502C10.1499 2.41752 11.3537 2.97877 12.6662 4.07252C12.9087 4.27252 13.2737 4.24752 13.4737 3.99752C13.5217 3.93966 13.5579 3.87291 13.5801 3.80108C13.6023 3.72924 13.6101 3.65373 13.6032 3.57886C13.5962 3.50399 13.5746 3.43123 13.5395 3.36473C13.5044 3.29822 13.4565 3.23928 13.3987 3.19127C11.8237 1.88752 10.3712 1.25002 9.18367 1.33752C8.83487 1.36577 8.49442 1.45905 8.17992 1.61252C6.69242 2.37127 6.09242 4.52127 6.46742 7.66002C6.55492 8.31002 6.66742 8.98752 6.82992 9.68502C2.72867 10.505 0.116174 12.1475 0.0036739 14.215C-0.0713261 15.6775 1.08492 17.07 3.35367 18.2425C3.42113 18.2835 3.49628 18.3101 3.57446 18.3207C3.65264 18.3313 3.73217 18.3258 3.80811 18.3043C3.88404 18.2829 3.95475 18.2461 4.01584 18.1961C4.07693 18.1462 4.12709 18.0842 4.1632 18.0141C4.19931 17.9439 4.22059 17.8671 4.22573 17.7884C4.23086 17.7096 4.21974 17.6307 4.19305 17.5564C4.16636 17.4822 4.12468 17.4142 4.07059 17.3568C4.01651 17.2993 3.95118 17.2536 3.87867 17.2225C2.06617 16.2888 1.09117 15.2375 1.14992 14.275C1.21242 12.925 3.36492 11.5375 7.09992 10.8C7.43742 12.0425 7.87492 13.34 8.41242 14.6625C7.13992 17.0225 6.21742 19.3463 5.74117 21.4125C5.04117 24.4938 5.41617 26.6875 6.81617 27.5975C7.26617 27.89 7.79117 28.035 8.37492 28.035C9.54367 28.035 10.9587 27.46 12.5587 26.32C12.6236 26.2781 12.6794 26.2234 12.7226 26.1593C12.7659 26.0952 12.7957 26.0231 12.8103 25.9471C12.8249 25.8712 12.8239 25.7931 12.8075 25.7176C12.7911 25.642 12.7595 25.5706 12.7148 25.5075C12.67 25.4445 12.6129 25.3912 12.547 25.3508C12.481 25.3105 12.4076 25.2839 12.3311 25.2727C12.2546 25.2615 12.1766 25.2659 12.1019 25.2856C12.0271 25.3053 11.9572 25.34 11.8962 25.3875C9.96617 26.7663 8.34117 27.2275 7.44367 26.6413C6.49367 26.0225 6.28617 24.2125 6.86867 21.6713C7.26867 19.9388 8.00242 18.0088 9.00367 16.0213C9.25367 16.5688 9.51617 17.1163 9.79117 17.6625C11.5724 21.1575 13.7537 24.1963 15.9287 26.2188C17.6612 27.8313 19.2712 28.6725 20.5974 28.6725C21.0349 28.6725 21.4474 28.5788 21.8174 28.3938C23.2487 27.6625 23.8674 25.6313 23.5649 22.675C23.2849 19.9088 22.2399 16.5375 20.6224 13.175C20.5542 13.0418 20.4367 12.9405 20.2949 12.8926C20.1531 12.8446 19.9982 12.8539 19.8631 12.9183C19.728 12.9828 19.6234 13.0973 19.5715 13.2377C19.5195 13.3781 19.5243 13.5332 19.5849 13.67C22.9474 20.6725 23.1849 26.4075 21.2974 27.37C19.3099 28.3863 14.5174 24.4263 10.8099 17.145C10.3849 16.3263 10.0137 15.52 9.68492 14.7325C10.1099 13.9725 10.5599 13.2075 11.0537 12.445C11.5474 11.69 12.0612 10.96 12.5837 10.2638H13.0762C13.7512 10.2638 14.4837 10.2763 15.2437 10.3238C23.4062 10.7525 28.9624 13.5238 28.8487 15.7413C28.7987 16.6975 27.6937 17.6638 25.8174 18.3913C25.6764 18.4481 25.5634 18.558 25.5026 18.6973C25.4418 18.8367 25.4382 18.9943 25.4924 19.1363C25.5191 19.2068 25.5596 19.2713 25.6114 19.3261C25.6633 19.3808 25.7255 19.4247 25.7945 19.4552C25.8635 19.4857 25.9378 19.5021 26.0132 19.5036C26.0886 19.5051 26.1636 19.4915 26.2337 19.4638C28.6149 18.5388 29.9212 17.2688 29.9962 15.8013C30.0837 14.1388 28.5337 12.5388 25.6212 11.3013V11.2888L25.6112 11.2813ZM10.0912 11.8125C9.75367 12.3313 9.44117 12.8463 9.13617 13.3675C8.78964 12.46 8.48802 11.536 8.23242 10.5988C9.12367 10.4613 10.0887 10.3613 11.1199 10.2988C10.7699 10.7863 10.4274 11.2913 10.0949 11.8113V11.7988L10.0912 11.8125ZM14.9974 13.2813C14.5416 13.2813 14.1044 13.4624 13.7821 13.7847C13.4598 14.107 13.2787 14.5442 13.2787 15C13.2787 15.4559 13.4598 15.893 13.7821 16.2154C14.1044 16.5377 14.5416 16.7188 14.9974 16.7188C15.4533 16.7188 15.8904 16.5377 16.2128 16.2154C16.5351 15.893 16.7162 15.4559 16.7162 15C16.7162 14.5442 16.5351 14.107 16.2128 13.7847C15.8904 13.4624 15.4533 13.2813 14.9974 13.2813Z" fill="#B8B8B8"/>
</g>
</svg>
