<svg width="1440" height="772" viewBox="0 0 1440 772" fill="none" xmlns="http://www.w3.org/2000/svg">
<path opacity="0.8" d="M-226.391 633.018C-238.131 438.43 -203.488 282.678 -68.4327 450.094M-68.4327 450.094C-44.8118 479.375 -18.1193 518.541 11.9339 569.114C179.09 850.404 239.367 796.576 252.568 652.832M-68.4327 450.094C-72.8126 490.858 -72.9511 539.593 -69.8471 591.043M-68.4327 450.094C-56.2476 336.685 -11.2348 284.968 88.1111 408.119M252.568 652.832C256.563 609.326 256.246 557.583 253.275 504.402M252.568 652.832C228.12 621.904 200.227 580.567 168.478 527.139C138.425 476.566 111.732 437.4 88.1111 408.119M252.568 652.832C356.833 784.737 398.418 727.298 409.112 610.857M88.1111 408.119C83.7312 448.883 83.5927 497.618 86.6967 549.068M88.1111 408.119C100.296 294.709 145.309 242.993 244.655 366.143M409.112 610.857C413.107 567.351 412.79 515.608 409.819 462.426M409.112 610.857C384.664 579.929 356.771 538.591 325.021 485.164C294.968 434.591 268.276 395.424 244.655 366.143M409.112 610.857C513.377 742.761 554.962 685.323 565.655 568.882M244.655 366.143C240.275 406.908 240.136 455.643 243.241 507.092M244.655 366.143C256.84 252.734 301.853 201.018 401.199 324.168M565.655 568.882C569.651 525.375 569.334 473.632 566.363 420.451M565.655 568.882C541.208 537.954 513.315 496.616 481.565 443.189C451.512 392.615 424.82 353.449 401.199 324.168M565.655 568.882C669.921 700.786 711.505 643.347 722.199 526.906M401.199 324.168C396.819 364.932 396.68 413.667 399.784 465.117M401.199 324.168C413.384 210.759 458.397 159.042 557.742 282.193M722.199 526.906C726.195 483.4 725.878 431.657 722.907 378.476M722.199 526.906C697.752 495.978 669.858 454.641 638.109 401.213C608.056 350.64 581.363 311.474 557.742 282.193M722.199 526.906C826.465 658.811 868.049 601.372 878.743 484.931M557.742 282.193C553.363 322.957 553.224 371.692 556.328 423.142M557.742 282.193C569.928 168.783 614.94 117.067 714.286 240.217M878.743 484.931C882.739 441.425 882.422 389.682 879.451 336.5M878.743 484.931C854.296 454.003 826.402 412.665 794.653 359.238C764.6 308.665 737.907 269.498 714.286 240.217M878.743 484.931C983.008 616.835 1024.59 559.397 1035.29 442.956M714.286 240.217C709.906 280.982 709.768 329.717 712.872 381.166M714.286 240.217C726.471 126.808 771.484 75.0917 870.83 198.242M1035.29 442.956C1039.28 399.449 1038.97 347.706 1035.99 294.525M1035.29 442.956C1010.84 412.028 982.946 370.69 951.197 317.263C921.144 266.689 894.451 227.523 870.83 198.242M1035.29 442.956C1139.55 574.86 1181.14 517.421 1191.83 400.98M870.83 198.242C866.45 239.006 866.312 287.741 869.416 339.191M870.83 198.242C883.015 84.8326 928.028 33.1164 1027.37 156.267M1191.83 400.98C1195.83 357.474 1195.51 305.731 1192.54 252.55M1191.83 400.98C1167.38 370.052 1139.49 328.715 1107.74 275.287C1077.69 224.714 1050.99 185.548 1027.37 156.267M1191.83 400.98C1296.1 532.885 1337.68 475.446 1348.37 359.005M1027.37 156.267C1022.99 197.031 1022.86 245.766 1025.96 297.216M1027.37 156.267C1039.56 42.8573 1084.57 -8.85895 1183.92 114.291M1348.37 359.005C1352.37 315.499 1352.05 263.756 1349.08 210.574M1348.37 359.005C1323.93 328.077 1296.03 286.739 1264.28 233.312C1234.23 182.739 1207.54 143.572 1183.92 114.291M1348.37 359.005C1452.64 490.909 1494.22 433.471 1504.92 317.03M1183.92 114.291C1179.54 155.056 1179.4 203.791 1182.5 255.24M1183.92 114.291C1199 -26.0829 1264.38 -71.9392 1420.83 191.337C1452.58 244.764 1480.47 286.102 1504.92 317.03M1504.92 317.03C1508.91 273.523 1508.6 221.78 1505.63 168.599M1504.92 317.03C1648.14 498.218 1673.09 322.141 1662.17 126.624" stroke="black"/>
</svg>
