<svg width="171" height="36" viewBox="0 0 171 36" fill="none" xmlns="http://www.w3.org/2000/svg">
<path d="M13.5 4.5V7.5V4.5ZM22.5 4.5V7.5V4.5ZM13.5 28.5V31.5V28.5ZM22.5 28.5V31.5V28.5ZM7.5 13.5H4.5H7.5ZM7.5 22.5H4.5H7.5ZM31.5 13.5H28.5H31.5ZM31.5 22.5H28.5H31.5ZM10.5 28.5H25.5C26.2956 28.5 27.0587 28.1839 27.6213 27.6213C28.1839 27.0587 28.5 26.2956 28.5 25.5V10.5C28.5 9.70435 28.1839 8.94129 27.6213 8.37868C27.0587 7.81607 26.2956 7.5 25.5 7.5H10.5C9.70435 7.5 8.94129 7.81607 8.37868 8.37868C7.81607 8.94129 7.5 9.70435 7.5 10.5V25.5C7.5 26.2956 7.81607 27.0587 8.37868 27.6213C8.94129 28.1839 9.70435 28.5 10.5 28.5ZM13.5 13.5H22.5V22.5H13.5V13.5Z" stroke="url(#paint0_linear_1_332)" stroke-linecap="round" stroke-linejoin="round"/>
<path d="M54.625 27.6113C56.6641 27.6113 58.5508 27.0723 60.2852 25.9941C61.9727 24.9512 63.209 23.6738 63.9941 22.1621L65.7344 22.9004C64.8086 24.7402 63.3496 26.2871 61.3574 27.541C59.3066 28.8301 57.0625 29.4746 54.625 29.4746C52.9141 29.4746 51.2793 29.1465 49.7207 28.4902C48.1973 27.8457 46.8555 26.9375 45.6953 25.7656C44.5234 24.6055 43.6152 23.2637 42.9707 21.7402C42.3145 20.1816 41.9863 18.5469 41.9863 16.8359C41.9863 15.125 42.3145 13.4844 42.9707 11.9141C43.6152 10.4023 44.5234 9.06641 45.6953 7.90625C46.8555 6.73437 48.1973 5.82617 49.7207 5.18164C51.2793 4.52539 52.9141 4.19727 54.625 4.19727C57.0625 4.19727 59.3066 4.8418 61.3574 6.13086C63.3496 7.38477 64.8086 8.93164 65.7344 10.7715L63.9941 11.5098C63.209 9.98633 61.9727 8.70898 60.2852 7.67773C58.5508 6.59961 56.6641 6.06055 54.625 6.06055C51.6602 6.06055 49.1172 7.10938 46.9961 9.20703C44.8984 11.3281 43.8496 13.8711 43.8496 16.8359C43.8496 19.8008 44.8984 22.3438 46.9961 24.4648C49.1172 26.5625 51.6602 27.6113 54.625 27.6113ZM70.8145 35.873L75.1035 25.3438L66.7539 4.67188H68.7754L76.123 22.8652L83.4883 4.67188H85.5098L72.8535 35.873H70.8145ZM97.5156 19.6133C99.3086 19.6133 100.844 18.9805 102.121 17.7148C103.398 16.4258 104.037 14.8848 104.037 13.0918C104.037 11.2988 103.398 9.75781 102.121 8.46875C100.844 7.20312 99.3086 6.57031 97.5156 6.57031H90.9766V19.6133H97.5156ZM97.5156 4.67188C99.8359 4.67188 101.816 5.49805 103.457 7.15039C105.109 8.7793 105.936 10.7598 105.936 13.0918C105.936 15.4121 105.109 17.3926 103.457 19.0332C101.816 20.6855 99.8359 21.5117 97.5156 21.5117H90.9766V29H89.0781V4.67188H97.5156ZM128.102 4.67188V29H126.203V17.7676H111.754V29H109.855V4.67188H111.754V15.8691H126.203V4.67188H128.102ZM147.314 27.1016V29H133.164V4.67188H147.314V6.57031H135.062V15.8164H144.941V17.7148H135.062V27.1016H147.314ZM153.168 6.57031V19.6133H159.689C161.494 19.6133 163.035 18.9805 164.312 17.7148C165.578 16.4258 166.211 14.8848 166.211 13.0918C166.211 11.2988 165.578 9.76367 164.312 8.48633C163.035 7.20898 161.494 6.57031 159.689 6.57031H153.168ZM163.064 20.8613C164.811 22.0098 166.076 23.2988 166.861 24.7285C167.658 26.1816 168.057 27.6055 168.057 29H166.158C166.158 27.1133 165.391 25.3906 163.855 23.832C162.297 22.2852 160.428 21.5117 158.248 21.5117H153.168V29H151.27V4.67188H159.689C162.021 4.67188 164.008 5.49805 165.648 7.15039C167.301 8.79102 168.127 10.7715 168.127 13.0918C168.127 14.6621 167.717 16.1211 166.896 17.4688C166.1 18.7578 164.822 19.8887 163.064 20.8613Z" fill="url(#paint1_linear_1_332)"/>
<defs>
<linearGradient id="paint0_linear_1_332" x1="5" y1="5" x2="32" y2="32" gradientUnits="userSpaceOnUse">
<stop stop-color="#99A9FF"/>
<stop offset="1" stop-color="#5CE4CF"/>
</linearGradient>
<linearGradient id="paint1_linear_1_332" x1="40" y1="0" x2="171" y2="36" gradientUnits="userSpaceOnUse">
<stop stop-color="#99A9FF"/>
<stop offset="1" stop-color="#5CE4CF"/>
</linearGradient>
</defs>
</svg>
