<svg width="211" height="116" viewBox="0 0 211 116" fill="none" xmlns="http://www.w3.org/2000/svg">
<rect width="211" height="116" fill="#30363A" fill-opacity="0.2"/>
<path d="M33.5 44.5V47.5V44.5ZM42.5 44.5V47.5V44.5ZM33.5 68.5V71.5V68.5ZM42.5 68.5V71.5V68.5ZM27.5 53.5H24.5H27.5ZM27.5 62.5H24.5H27.5ZM51.5 53.5H48.5H51.5ZM51.5 62.5H48.5H51.5ZM30.5 68.5H45.5C46.2956 68.5 47.0587 68.1839 47.6213 67.6213C48.1839 67.0587 48.5 66.2956 48.5 65.5V50.5C48.5 49.7044 48.1839 48.9413 47.6213 48.3787C47.0587 47.8161 46.2956 47.5 45.5 47.5H30.5C29.7044 47.5 28.9413 47.8161 28.3787 48.3787C27.8161 48.9413 27.5 49.7044 27.5 50.5V65.5C27.5 66.2956 27.8161 67.0587 28.3787 67.6213C28.9413 68.1839 29.7044 68.5 30.5 68.5ZM33.5 53.5H42.5V62.5H33.5V53.5Z" stroke="url(#paint0_linear_1_330)" stroke-linecap="round" stroke-linejoin="round"/>
<path d="M74.625 67.6113C76.6641 67.6113 78.5508 67.0723 80.2852 65.9941C81.9727 64.9512 83.209 63.6738 83.9941 62.1621L85.7344 62.9004C84.8086 64.7402 83.3496 66.2871 81.3574 67.541C79.3066 68.8301 77.0625 69.4746 74.625 69.4746C72.9141 69.4746 71.2793 69.1465 69.7207 68.4902C68.1973 67.8457 66.8555 66.9375 65.6953 65.7656C64.5234 64.6055 63.6152 63.2637 62.9707 61.7402C62.3145 60.1816 61.9863 58.5469 61.9863 56.8359C61.9863 55.125 62.3145 53.4844 62.9707 51.9141C63.6152 50.4023 64.5234 49.0664 65.6953 47.9062C66.8555 46.7344 68.1973 45.8262 69.7207 45.1816C71.2793 44.5254 72.9141 44.1973 74.625 44.1973C77.0625 44.1973 79.3066 44.8418 81.3574 46.1309C83.3496 47.3848 84.8086 48.9316 85.7344 50.7715L83.9941 51.5098C83.209 49.9863 81.9727 48.709 80.2852 47.6777C78.5508 46.5996 76.6641 46.0605 74.625 46.0605C71.6602 46.0605 69.1172 47.1094 66.9961 49.207C64.8984 51.3281 63.8496 53.8711 63.8496 56.8359C63.8496 59.8008 64.8984 62.3438 66.9961 64.4648C69.1172 66.5625 71.6602 67.6113 74.625 67.6113ZM90.8145 75.873L95.1035 65.3438L86.7539 44.6719H88.7754L96.123 62.8652L103.488 44.6719H105.51L92.8535 75.873H90.8145ZM117.516 59.6133C119.309 59.6133 120.844 58.9805 122.121 57.7148C123.398 56.4258 124.037 54.8848 124.037 53.0918C124.037 51.2988 123.398 49.7578 122.121 48.4688C120.844 47.2031 119.309 46.5703 117.516 46.5703H110.977V59.6133H117.516ZM117.516 44.6719C119.836 44.6719 121.816 45.498 123.457 47.1504C125.109 48.7793 125.936 50.7598 125.936 53.0918C125.936 55.4121 125.109 57.3926 123.457 59.0332C121.816 60.6855 119.836 61.5117 117.516 61.5117H110.977V69H109.078V44.6719H117.516ZM148.102 44.6719V69H146.203V57.7676H131.754V69H129.855V44.6719H131.754V55.8691H146.203V44.6719H148.102ZM167.314 67.1016V69H153.164V44.6719H167.314V46.5703H155.062V55.8164H164.941V57.7148H155.062V67.1016H167.314ZM173.168 46.5703V59.6133H179.689C181.494 59.6133 183.035 58.9805 184.312 57.7148C185.578 56.4258 186.211 54.8848 186.211 53.0918C186.211 51.2988 185.578 49.7637 184.312 48.4863C183.035 47.209 181.494 46.5703 179.689 46.5703H173.168ZM183.064 60.8613C184.811 62.0098 186.076 63.2988 186.861 64.7285C187.658 66.1816 188.057 67.6055 188.057 69H186.158C186.158 67.1133 185.391 65.3906 183.855 63.832C182.297 62.2852 180.428 61.5117 178.248 61.5117H173.168V69H171.27V44.6719H179.689C182.021 44.6719 184.008 45.498 185.648 47.1504C187.301 48.791 188.127 50.7715 188.127 53.0918C188.127 54.6621 187.717 56.1211 186.896 57.4688C186.1 58.7578 184.822 59.8887 183.064 60.8613Z" fill="url(#paint1_linear_1_330)"/>
<defs>
<linearGradient id="paint0_linear_1_330" x1="25" y1="45" x2="52" y2="72" gradientUnits="userSpaceOnUse">
<stop stop-color="#99A9FF"/>
<stop offset="1" stop-color="#5CE4CF"/>
</linearGradient>
<linearGradient id="paint1_linear_1_330" x1="60" y1="40" x2="191" y2="76" gradientUnits="userSpaceOnUse">
<stop stop-color="#99A9FF"/>
<stop offset="1" stop-color="#5CE4CF"/>
</linearGradient>
</defs>
</svg>
