<svg width="167" height="37" viewBox="0 0 167 37" fill="none" xmlns="http://www.w3.org/2000/svg">
<path d="M48.0352 4.56445V21.9316C48.0352 24.1582 47.2441 26.0566 45.6621 27.627C44.0918 29.209 42.3398 30 40.4062 30V28.1016C41.8125 28.1016 43.125 27.498 44.3438 26.291C45.5391 25.084 46.1367 23.6309 46.1367 21.9316V6.46289H41.9004V4.56445H48.0352ZM66.2988 22.2656L61.4473 10.2422L56.5957 22.2656H66.2988ZM71.4844 30H69.4453L67.0723 24.1465H55.8223L53.4492 30H51.4102L61.4473 5.19727L71.4844 30ZM76.7578 7.57031V20.6133H83.2793C85.084 20.6133 86.625 19.9805 87.9023 18.7148C89.168 17.4258 89.8008 15.8848 89.8008 14.0918C89.8008 12.2988 89.168 10.7637 87.9023 9.48633C86.625 8.20898 85.084 7.57031 83.2793 7.57031H76.7578ZM86.6543 21.8613C88.4004 23.0098 89.666 24.2988 90.4512 25.7285C91.248 27.1816 91.6465 28.6055 91.6465 30H89.748C89.748 28.1133 88.9805 26.3906 87.4453 24.832C85.8867 23.2852 84.0176 22.5117 81.8379 22.5117H76.7578V30H74.8594V5.67188H83.2793C85.6113 5.67188 87.5977 6.49805 89.2383 8.15039C90.8906 9.79102 91.7168 11.7715 91.7168 14.0918C91.7168 15.6621 91.3066 17.1211 90.4863 18.4688C89.6895 19.7578 88.4121 20.8887 86.6543 21.8613ZM104.021 25.4473L112.02 5.67188H114.059L104.021 30.4922L93.9844 5.67188H96.0234L104.021 25.4473ZM117.504 30V5.67188H119.402V30H117.504ZM136.559 28.6113C138.598 28.6113 140.484 28.0723 142.219 26.9941C143.906 25.9512 145.143 24.6738 145.928 23.1621L147.668 23.9004C146.742 25.7402 145.283 27.2871 143.291 28.541C141.24 29.8301 138.996 30.4746 136.559 30.4746C134.848 30.4746 133.213 30.1465 131.654 29.4902C130.131 28.8457 128.789 27.9375 127.629 26.7656C126.457 25.6055 125.549 24.2637 124.904 22.7402C124.248 21.1816 123.92 19.5469 123.92 17.8359C123.92 16.125 124.248 14.4844 124.904 12.9141C125.549 11.4023 126.457 10.0664 127.629 8.90625C128.789 7.73437 130.131 6.82617 131.654 6.18164C133.213 5.52539 134.848 5.19727 136.559 5.19727C138.996 5.19727 141.24 5.8418 143.291 7.13086C145.283 8.38477 146.742 9.93164 147.668 11.7715L145.928 12.5098C145.143 10.9863 143.906 9.70898 142.219 8.67773C140.484 7.59961 138.598 7.06055 136.559 7.06055C133.594 7.06055 131.051 8.10938 128.93 10.207C126.832 12.3281 125.783 14.8711 125.783 17.8359C125.783 20.8008 126.832 23.3438 128.93 25.4648C131.051 27.5625 133.594 28.6113 136.559 28.6113ZM165.123 28.1016V30H150.973V5.67188H165.123V7.57031H152.871V16.8164H162.75V18.7148H152.871V28.1016H165.123Z" fill="#B8B8B8"/>
<path d="M6.00021 10.5V25.5L18.0002 31.5M30.0002 10.5L18.0002 4.5L6.00021 10.5H30.0002ZM30.0002 10.5L18.0002 16.5L30.0002 10.5ZM30.0002 10.5V25.5L18.0002 31.5L30.0002 10.5ZM18.0002 16.5L6.00021 10.5L18.0002 16.5ZM18.0002 16.5V31.5V16.5Z" stroke="#B8B8B8" stroke-linecap="round" stroke-linejoin="round"/>
</svg>
