<svg width="176" height="36" viewBox="0 0 176 36" fill="none" xmlns="http://www.w3.org/2000/svg">
<path d="M47.4023 16.6602L59.7246 29H57.0352L46.0488 18.0137L43.4297 20.6328V29H41.5312V4.67188H43.4297V17.9258L56.6836 4.67188H59.3906L47.4023 16.6602ZM76.0371 21.2656L71.1855 9.24219L66.334 21.2656H76.0371ZM81.2227 29H79.1836L76.8105 23.1465H65.5605L63.1875 29H61.1484L71.1855 4.19727L81.2227 29ZM106.605 4.67188H108.645L98.6074 29.4746L93 15.623L87.3926 29.4746L77.373 4.67188H79.4121L87.4102 24.4297L91.9805 13.0918L88.5879 4.67188H90.627L93.0176 10.5605L95.3906 4.6543H97.4473L94.0371 13.0918L98.6074 24.4297L106.605 4.67188ZM119.701 21.2656L114.85 9.24219L109.998 21.2656H119.701ZM124.887 29H122.848L120.475 23.1465H109.225L106.852 29H104.812L114.85 4.19727L124.887 29ZM136.822 29.4746C134.83 29.4746 133.025 29 131.408 28.0508C129.463 26.9258 128.221 25.4492 127.682 23.6211L129.475 23.0938C129.885 24.5 130.869 25.6426 132.428 26.5215C133.705 27.248 135.176 27.6113 136.84 27.6113C137.098 27.6113 137.32 27.6055 137.508 27.5938C137.695 27.582 137.918 27.5527 138.176 27.5059C138.902 27.3887 139.564 27.1953 140.162 26.9258C141.967 26.1055 142.945 24.6992 143.098 22.707C143.18 21.6406 142.863 20.6914 142.148 19.8594C141.082 18.6172 139.4 17.9199 137.104 17.7676C133.541 17.5332 130.98 16.7129 129.422 15.3066C128.273 14.2871 127.699 12.9688 127.699 11.3516C127.699 9.13672 128.572 7.36719 130.318 6.04297C131.924 4.8125 133.869 4.19727 136.154 4.19727C138.85 4.19727 141.105 5.15234 142.922 7.0625C143.496 7.68359 143.994 8.36328 144.416 9.10156C144.557 9.33594 144.662 9.54102 144.732 9.7168L142.992 10.3672C142.945 10.2852 142.811 10.0508 142.588 9.66406C142.365 9.26562 142.02 8.83203 141.551 8.36328C140.098 6.82813 138.299 6.06055 136.154 6.06055C135.51 6.06055 134.854 6.14258 134.186 6.30664C133.4 6.4707 132.691 6.73437 132.059 7.09766C130.395 8.07031 129.562 9.48828 129.562 11.3516C129.562 14.0469 132.117 15.5645 137.227 15.9043C140.039 16.0918 142.148 17 143.555 18.6289C144.609 19.8477 145.078 21.2539 144.961 22.8477C144.785 24.9922 143.865 26.668 142.201 27.875C140.725 28.9414 138.943 29.4746 136.857 29.4746H136.822ZM155.191 16.6602L167.514 29H164.824L153.838 18.0137L151.219 20.6328V29H149.32V4.67188H151.219V17.9258L164.473 4.67188H167.18L155.191 16.6602ZM170.625 29V4.67188H172.523V29H170.625Z" fill="#B8B8B8"/>
<path d="M4.9385 25.7727C4.95013 25.7468 4.96334 25.7214 4.97816 25.6964L17.3552 4.86688C17.6454 4.37859 18.3519 4.37749 18.6436 4.86489L31.2099 25.8649C31.2709 25.9669 31.3049 26.0775 31.3139 26.1884C31.4363 26.4482 31.5 26.719 31.5 27C31.5 29.7311 25.4856 31.5 18 31.5C10.5144 31.5 4.5 29.7311 4.5 27C4.5 26.5654 4.65227 26.1553 4.9385 25.7727ZM7.75067 23.9669C10.2217 23.0335 13.889 22.5 18 22.5C22.1666 22.5 25.8774 23.048 28.3489 24.005L18.0023 6.71439L7.75067 23.9669ZM6.10343 26.6557C6.03521 26.771 6 26.8861 6 27C6 28.4111 11.4024 30 18 30C24.5976 30 30 28.4111 30 27C30 25.5889 24.5976 24 18 24C12.3175 24 7.52175 25.1787 6.30061 26.4073L6.26768 26.4627C6.22293 26.538 6.16707 26.6026 6.10343 26.6557Z" fill="#B8B8B8"/>
</svg>
