<svg width="91" height="293" viewBox="0 0 91 293" fill="none" xmlns="http://www.w3.org/2000/svg">
<path d="M55.7367 292.2C86.2678 277.804 107.094 260.467 70.579 256.356M70.579 256.356C64.1926 255.637 56.0521 255.323 45.9028 255.5C-10.5482 256.483 -7.31187 244.114 13.4479 230.592M70.579 256.356C64.7439 260.275 57.3498 264.287 49.2773 268.094M70.579 256.356C86.8128 245.454 90.9799 235.273 64.1196 232.249M13.4479 230.592C19.7312 226.499 27.6197 222.301 35.9444 218.335M13.4479 230.592C20.1524 231.285 28.7212 231.58 39.4434 231.393C49.5928 231.216 57.7332 231.531 64.1196 232.249M13.4479 230.592C-15.146 227.636 -9.8282 217.439 6.98849 206.485M64.1196 232.249C58.2845 236.168 50.8904 240.18 42.8179 243.987M64.1196 232.249C80.3534 221.347 84.5205 211.166 57.6602 208.143M6.98849 206.485C13.2718 202.392 21.1603 198.194 29.485 194.228M6.98849 206.485C13.693 207.178 22.2618 207.473 32.984 207.286C43.1334 207.11 51.2738 207.424 57.6602 208.143M6.98849 206.485C-21.6054 203.53 -16.2876 193.332 0.529091 182.378M57.6602 208.143C51.8251 212.062 44.431 216.074 36.3585 219.88M57.6602 208.143C73.894 197.24 78.0611 187.059 51.2008 184.036M0.529091 182.378C6.81236 178.286 14.7009 174.087 23.0256 170.121M0.529091 182.378C7.23358 183.071 15.8024 183.366 26.5246 183.18C36.674 183.003 44.8144 183.317 51.2008 184.036M0.529091 182.378C-28.0648 179.423 -22.747 169.226 -5.9303 158.272M51.2008 184.036C45.3657 187.955 37.9717 191.967 29.8991 195.773M51.2008 184.036C67.4346 173.133 71.6017 162.953 44.7414 159.929M-5.9303 158.272C0.352966 154.179 8.2415 149.98 16.5662 146.014M-5.9303 158.272C0.774186 158.965 9.34305 159.26 20.0652 159.073C30.2146 158.896 38.355 159.21 44.7414 159.929M-5.9303 158.272C-34.5242 155.316 -29.2064 145.119 -12.3897 134.165M44.7414 159.929C38.9063 163.848 31.5123 167.86 23.4397 171.667M44.7414 159.929C60.9752 149.027 65.1423 138.846 38.282 135.822M-12.3897 134.165C-6.10643 130.072 1.7821 125.874 10.1069 121.908M-12.3897 134.165C-5.68521 134.858 2.88365 135.153 13.6058 134.966C23.7552 134.789 31.8956 135.103 38.282 135.822M-12.3897 134.165C-40.9836 131.209 -35.6658 121.012 -18.8491 110.058M38.282 135.822C32.447 139.741 25.0529 143.753 16.9803 147.56M38.282 135.822C54.5158 124.92 58.6829 114.739 31.8226 111.716M-18.8491 110.058C-12.5658 105.965 -4.67729 101.767 3.64746 97.8008M-18.8491 110.058C-12.1446 110.751 -3.57574 111.046 7.14643 110.859C17.2958 110.682 25.4362 110.997 31.8226 111.716M-18.8491 110.058C-47.443 107.102 -42.1252 96.9053 -25.3085 85.9513M31.8226 111.716C25.9875 115.634 18.5935 119.646 10.5209 123.453M31.8226 111.716C48.0564 100.813 52.2235 90.6323 25.3632 87.6087M-25.3085 85.9513C-19.0252 81.8585 -11.1367 77.66 -2.81194 73.6941M-25.3085 85.9513C-18.604 86.6443 -10.0351 86.9392 0.687031 86.7524C10.8364 86.5756 18.9768 86.8898 25.3632 87.6087M-25.3085 85.9513C-53.9024 82.9956 -48.5846 72.7985 -31.7679 61.8445M25.3632 87.6087C19.5282 91.5276 12.1341 95.5397 4.06152 99.3461M25.3632 87.6087C41.597 76.7062 45.7641 66.5255 18.9039 63.502M-31.7679 61.8445C-25.4846 57.7517 -17.5961 53.5532 -9.27133 49.5873M-31.7679 61.8445C-25.0634 62.5375 -16.4945 62.8324 -5.77236 62.6456C4.37699 62.4688 12.5174 62.7831 18.9039 63.502M-31.7679 61.8445C-60.3618 58.8888 -55.044 48.6918 -38.2273 37.7377M18.9039 63.502C13.0688 67.4208 5.67468 71.4329 -2.39787 75.2394M18.9039 63.502C38.9974 50.0072 40.6041 37.6183 -12.2318 38.5388C-22.9539 38.7256 -31.5228 38.4307 -38.2273 37.7377M-38.2273 37.7377C-31.944 33.6449 -24.0555 29.4464 -15.7307 25.4805M-38.2273 37.7377C-77.5048 33.6777 -52.7954 15.9541 -22.1901 1.37369" stroke="black"/>
</svg>
