<svg width="174" height="36" viewBox="0 0 174 36" fill="none" xmlns="http://www.w3.org/2000/svg">
<path d="M53.625 6.06055C50.6484 6.06055 48.1055 7.10938 45.9961 9.20703C43.8867 11.3281 42.832 13.8711 42.832 16.8359C42.832 19.8008 43.8867 22.3438 45.9961 24.4648C48.1055 26.5625 50.6484 27.6113 53.625 27.6113C56.5898 27.6113 59.127 26.5625 61.2363 24.4648C63.3457 22.3438 64.4004 19.8008 64.4004 16.8359C64.4004 13.8711 63.3457 11.3281 61.2363 9.20703C59.127 7.10938 56.5898 6.06055 53.625 6.06055ZM53.625 29.4746C51.9023 29.4746 50.2617 29.1465 48.7031 28.4902C47.1914 27.8457 45.8555 26.9375 44.6953 25.7656C43.5234 24.6055 42.6152 23.2695 41.9707 21.7578C41.3027 20.1875 40.9688 18.5469 40.9688 16.8359C40.9688 15.125 41.3027 13.4902 41.9707 11.9316C42.6152 10.4082 43.5234 9.06641 44.6953 7.90625C45.8555 6.73437 47.1914 5.83203 48.7031 5.19922C50.2617 4.53125 51.9023 4.19727 53.625 4.19727C55.3359 4.19727 56.9707 4.53125 58.5293 5.19922C60.041 5.83203 61.377 6.73437 62.5371 7.90625C63.7207 9.06641 64.6289 10.4082 65.2617 11.9316C65.9297 13.4902 66.2637 15.125 66.2637 16.8359C66.2637 18.5469 65.9297 20.1875 65.2617 21.7578C64.6289 23.2695 63.7207 24.6055 62.5371 25.7656C61.377 26.9375 60.041 27.8457 58.5293 28.4902C56.9707 29.1465 55.3359 29.4746 53.625 29.4746ZM72.1875 6.57031V19.6133H78.709C80.5137 19.6133 82.0547 18.9805 83.332 17.7148C84.5977 16.4258 85.2305 14.8848 85.2305 13.0918C85.2305 11.2988 84.5977 9.76367 83.332 8.48633C82.0547 7.20898 80.5137 6.57031 78.709 6.57031H72.1875ZM82.084 20.8613C83.8301 22.0098 85.0957 23.2988 85.8809 24.7285C86.6777 26.1816 87.0762 27.6055 87.0762 29H85.1777C85.1777 27.1133 84.4102 25.3906 82.875 23.832C81.3164 22.2852 79.4473 21.5117 77.2676 21.5117H72.1875V29H70.2891V4.67188H78.709C81.041 4.67188 83.0273 5.49805 84.668 7.15039C86.3203 8.79102 87.1465 10.7715 87.1465 13.0918C87.1465 14.6621 86.7363 16.1211 85.916 17.4688C85.1191 18.7578 83.8418 19.8887 82.084 20.8613ZM104.83 21.2656L99.9785 9.24219L95.127 21.2656H104.83ZM110.016 29H107.977L105.604 23.1465H94.3535L91.9805 29H89.9414L99.9785 4.19727L110.016 29ZM124.078 27.6113C126.117 27.6113 128.004 27.0723 129.738 25.9941C131.426 24.9512 132.662 23.6738 133.447 22.1621L135.188 22.9004C134.262 24.7402 132.803 26.2871 130.811 27.541C128.76 28.8301 126.516 29.4746 124.078 29.4746C122.367 29.4746 120.732 29.1465 119.174 28.4902C117.65 27.8457 116.309 26.9375 115.148 25.7656C113.977 24.6055 113.068 23.2637 112.424 21.7402C111.768 20.1816 111.439 18.5469 111.439 16.8359C111.439 15.125 111.768 13.4844 112.424 11.9141C113.068 10.4023 113.977 9.06641 115.148 7.90625C116.309 6.73437 117.65 5.82617 119.174 5.18164C120.732 4.52539 122.367 4.19727 124.078 4.19727C126.516 4.19727 128.76 4.8418 130.811 6.13086C132.803 7.38477 134.262 8.93164 135.188 10.7715L133.447 11.5098C132.662 9.98633 131.426 8.70898 129.738 7.67773C128.004 6.59961 126.117 6.06055 124.078 6.06055C121.113 6.06055 118.57 7.10938 116.449 9.20703C114.352 11.3281 113.303 13.8711 113.303 16.8359C113.303 19.8008 114.352 22.3438 116.449 24.4648C118.57 26.5625 121.113 27.6113 124.078 27.6113ZM140.936 27.1016H153.891V29H139.037V4.67188H140.936V27.1016ZM171.979 27.1016V29H157.828V4.67188H171.979V6.57031H159.727V15.8164H169.605V17.7148H159.727V27.1016H171.979Z" fill="#B8B8B8"/>
<path d="M27.0002 27L30.0002 25.5V21.75M21.0002 15L18.0002 16.5L21.0002 15ZM18.0002 16.5L15.0002 15L18.0002 16.5ZM18.0002 16.5V20.25V16.5ZM30.0002 10.5L27.0002 12L30.0002 10.5ZM30.0002 10.5L27.0002 9L30.0002 10.5ZM30.0002 10.5V14.25V10.5ZM21.0002 6L18.0002 4.5L15.0002 6H21.0002ZM6.0002 10.5L9.0002 9L6.0002 10.5ZM6.0002 10.5L9.0002 12L6.0002 10.5ZM6.0002 10.5V14.25V10.5ZM18.0002 31.5L15.0002 30L18.0002 31.5ZM18.0002 31.5L21.0002 30L18.0002 31.5ZM18.0002 31.5V27.75V31.5ZM9.0002 27L6.0002 25.5V21.75L9.0002 27Z" stroke="#B8B8B8" stroke-linecap="round" stroke-linejoin="round"/>
</svg>
