<svg width="140" height="37" viewBox="0 0 140 37" fill="none" xmlns="http://www.w3.org/2000/svg">
<path d="M51.625 7.06055C48.6484 7.06055 46.1055 8.10938 43.9961 10.207C41.8867 12.3281 40.832 14.8711 40.832 17.8359C40.832 20.8008 41.8867 23.3438 43.9961 25.4648C46.1055 27.5625 48.6484 28.6113 51.625 28.6113C54.5898 28.6113 57.127 27.5625 59.2363 25.4648C61.3457 23.3438 62.4004 20.8008 62.4004 17.8359C62.4004 14.8711 61.3457 12.3281 59.2363 10.207C57.127 8.10938 54.5898 7.06055 51.625 7.06055ZM51.625 30.4746C49.9023 30.4746 48.2617 30.1465 46.7031 29.4902C45.1914 28.8457 43.8555 27.9375 42.6953 26.7656C41.5234 25.6055 40.6152 24.2695 39.9707 22.7578C39.3027 21.1875 38.9688 19.5469 38.9688 17.8359C38.9688 16.125 39.3027 14.4902 39.9707 12.9316C40.6152 11.4082 41.5234 10.0664 42.6953 8.90625C43.8555 7.73437 45.1914 6.83203 46.7031 6.19922C48.2617 5.53125 49.9023 5.19727 51.625 5.19727C53.3359 5.19727 54.9707 5.53125 56.5293 6.19922C58.041 6.83203 59.377 7.73437 60.5371 8.90625C61.7207 10.0664 62.6289 11.4082 63.2617 12.9316C63.9297 14.4902 64.2637 16.125 64.2637 17.8359C64.2637 19.5469 63.9297 21.1875 63.2617 22.7578C62.6289 24.2695 61.7207 25.6055 60.5371 26.7656C59.377 27.9375 58.041 28.8457 56.5293 29.4902C54.9707 30.1465 53.3359 30.4746 51.625 30.4746ZM70.1875 7.57031V20.6133H76.709C78.5137 20.6133 80.0547 19.9805 81.332 18.7148C82.5977 17.4258 83.2305 15.8848 83.2305 14.0918C83.2305 12.2988 82.5977 10.7637 81.332 9.48633C80.0547 8.20898 78.5137 7.57031 76.709 7.57031H70.1875ZM80.084 21.8613C81.8301 23.0098 83.0957 24.2988 83.8809 25.7285C84.6777 27.1816 85.0762 28.6055 85.0762 30H83.1777C83.1777 28.1133 82.4102 26.3906 80.875 24.832C79.3164 23.2852 77.4473 22.5117 75.2676 22.5117H70.1875V30H68.2891V5.67188H76.709C79.041 5.67188 81.0273 6.49805 82.668 8.15039C84.3203 9.79102 85.1465 11.7715 85.1465 14.0918C85.1465 15.6621 84.7363 17.1211 83.916 18.4688C83.1191 19.7578 81.8418 20.8887 80.084 21.8613ZM97.6621 28.1016C100.475 28.0898 102.889 27.0879 104.904 25.0957C106.908 23.0801 107.91 20.6602 107.91 17.8359C107.91 15.0117 106.908 12.5918 104.904 10.5762C102.889 8.57227 100.475 7.57031 97.6621 7.57031H91.3691V28.1016H97.6621ZM89.6289 30V5.67188H97.6445C99.2969 5.67188 100.873 5.99414 102.373 6.63867C103.826 7.24805 105.115 8.11523 106.24 9.24023C107.365 10.3652 108.232 11.6543 108.842 13.1074C109.486 14.6074 109.809 16.1836 109.809 17.8359C109.809 19.4766 109.486 21.0527 108.842 22.5645C108.232 24.0176 107.359 25.3008 106.223 26.4141C105.109 27.5508 103.826 28.4238 102.373 29.0332C100.861 29.6777 99.2852 30 97.6445 30H89.6289ZM113.816 30V5.67188H115.715V30H113.816ZM130.146 17.5371L138.883 30H136.562L128.986 19.1895L121.41 30H119.09L127.844 17.5371L119.529 5.67188H121.85L129.004 15.8848L136.158 5.67188H138.479L130.146 17.5371Z" fill="#B8B8B8"/>
<path d="M13.875 18.5C13.875 15.9457 15.9457 13.875 18.5 13.875C21.0543 13.875 23.125 15.9457 23.125 18.5C23.125 21.0543 21.0543 23.125 18.5 23.125C15.9457 23.125 13.875 21.0543 13.875 18.5ZM15.4167 18.5C15.4167 20.2029 16.7971 21.5833 18.5 21.5833C20.2029 21.5833 21.5833 20.2029 21.5833 18.5C21.5833 16.7971 20.2029 15.4166 18.5 15.4166C16.7971 15.4166 15.4167 16.7971 15.4167 18.5ZM12.1341 13.6213C11.8485 13.937 11.361 13.9614 11.0453 13.6757C10.7296 13.3901 10.7053 12.9026 10.9909 12.587C11.2171 12.337 11.4556 12.0985 11.7055 11.8724C15.8527 8.11987 22.2566 8.4398 26.0091 12.587C26.2947 12.9026 26.2704 13.3901 25.9547 13.6757C25.639 13.9614 25.1516 13.937 24.8659 13.6213C21.6847 10.1055 16.2557 9.83429 12.7399 13.0155C12.528 13.2072 12.3258 13.4094 12.1341 13.6213ZM29.1084 9.52183C29.384 9.84632 29.3443 10.3328 29.0198 10.6083C28.6953 10.8839 28.2089 10.8443 27.9333 10.5198C23.5088 5.30992 15.6986 4.67328 10.4887 9.09781C9.97691 9.53244 9.50135 10.008 9.06672 10.5198C8.79114 10.8443 8.30469 10.8839 7.9802 10.6083C7.65571 10.3328 7.61605 9.84632 7.89163 9.52183C8.38041 8.9463 8.91521 8.4115 9.49074 7.92272C15.3496 2.94704 24.1327 3.66299 29.1084 9.52183ZM24.864 23.3807C25.1485 23.064 25.6359 23.0379 25.9526 23.3223C26.2693 23.6068 26.2954 24.0942 26.011 24.4109C22.2851 28.5591 15.9019 28.9014 11.7537 25.1756C11.4853 24.9345 11.2301 24.6793 10.989 24.4109C10.7046 24.0942 10.7307 23.6068 11.0474 23.3223C11.3641 23.0379 11.8515 23.064 12.136 23.3807C12.3402 23.6081 12.5565 23.8244 12.7839 24.0286C16.2986 27.1855 21.7071 26.8955 24.864 23.3807ZM27.9336 26.4799C28.2093 26.1555 28.6958 26.1161 29.0201 26.3919C29.3445 26.6676 29.3839 27.1541 29.1081 27.4784C24.1272 33.3371 15.3399 34.0487 9.48122 29.0678C8.90948 28.5817 8.37798 28.0502 7.8919 27.4784C7.61615 27.1541 7.65554 26.6676 7.97988 26.3919C8.30422 26.1161 8.7907 26.1555 9.06645 26.4798C9.49871 26.9883 9.97137 27.4609 10.4798 27.8932C15.6898 32.3226 23.5041 31.6899 27.9336 26.4799Z" fill="#B8B8B8"/>
</svg>
