<svg width="1440" height="933" viewBox="0 0 1440 933" fill="none" xmlns="http://www.w3.org/2000/svg">
<path opacity="0.8" d="M-226.391 698.018C-238.131 503.43 -203.488 347.678 -68.4327 515.094M-68.4327 515.094C-44.8118 544.375 -18.1193 583.541 11.9339 634.114C179.09 915.404 239.367 861.576 252.568 717.832M-68.4327 515.094C-72.8126 555.858 -72.9511 604.593 -69.8471 656.043M-68.4327 515.094C-56.2476 401.685 -11.2348 349.968 88.1111 473.119M252.568 717.832C256.563 674.326 256.246 622.583 253.275 569.402M252.568 717.832C228.12 686.904 200.227 645.567 168.478 592.139C138.425 541.566 111.732 502.4 88.1111 473.119M252.568 717.832C356.833 849.737 398.418 792.298 409.112 675.857M88.1111 473.119C83.7312 513.883 83.5927 562.618 86.6967 614.068M88.1111 473.119C100.296 359.709 145.309 307.993 244.655 431.143M409.112 675.857C413.107 632.351 412.79 580.608 409.819 527.426M409.112 675.857C384.664 644.929 356.771 603.591 325.021 550.164C294.968 499.591 268.276 460.424 244.655 431.143M409.112 675.857C513.377 807.761 554.962 750.323 565.655 633.882M244.655 431.143C240.275 471.908 240.136 520.643 243.241 572.092M244.655 431.143C256.84 317.734 301.853 266.018 401.199 389.168M565.655 633.882C569.651 590.375 569.334 538.632 566.363 485.451M565.655 633.882C541.208 602.954 513.315 561.616 481.565 508.189C451.512 457.615 424.82 418.449 401.199 389.168M565.655 633.882C669.921 765.786 711.505 708.347 722.199 591.906M401.199 389.168C396.819 429.932 396.68 478.667 399.784 530.117M401.199 389.168C413.384 275.759 458.397 224.042 557.742 347.193M722.199 591.906C726.195 548.4 725.878 496.657 722.907 443.476M722.199 591.906C697.752 560.978 669.858 519.641 638.109 466.213C608.056 415.64 581.363 376.474 557.742 347.193M722.199 591.906C826.465 723.811 868.049 666.372 878.743 549.931M557.742 347.193C553.363 387.957 553.224 436.692 556.328 488.142M557.742 347.193C569.928 233.783 614.94 182.067 714.286 305.217M878.743 549.931C882.739 506.425 882.422 454.682 879.451 401.5M878.743 549.931C854.296 519.003 826.402 477.665 794.653 424.238C764.6 373.665 737.907 334.498 714.286 305.217M878.743 549.931C983.008 681.835 1024.59 624.397 1035.29 507.956M714.286 305.217C709.906 345.982 709.768 394.717 712.872 446.166M714.286 305.217C726.471 191.808 771.484 140.092 870.83 263.242M1035.29 507.956C1039.28 464.449 1038.97 412.706 1035.99 359.525M1035.29 507.956C1010.84 477.028 982.946 435.69 951.197 382.263C921.144 331.689 894.451 292.523 870.83 263.242M1035.29 507.956C1139.55 639.86 1181.14 582.421 1191.83 465.98M870.83 263.242C866.45 304.006 866.312 352.741 869.416 404.191M870.83 263.242C883.015 149.833 928.028 98.1164 1027.37 221.267M1191.83 465.98C1195.83 422.474 1195.51 370.731 1192.54 317.55M1191.83 465.98C1167.38 435.052 1139.49 393.715 1107.74 340.287C1077.69 289.714 1050.99 250.548 1027.37 221.267M1191.83 465.98C1296.1 597.885 1337.68 540.446 1348.37 424.005M1027.37 221.267C1022.99 262.031 1022.86 310.766 1025.96 362.216M1027.37 221.267C1039.56 107.857 1084.57 56.141 1183.92 179.291M1348.37 424.005C1352.37 380.499 1352.05 328.756 1349.08 275.574M1348.37 424.005C1323.93 393.077 1296.03 351.739 1264.28 298.312C1234.23 247.739 1207.54 208.572 1183.92 179.291M1348.37 424.005C1452.64 555.909 1494.22 498.471 1504.92 382.03M1183.92 179.291C1179.54 220.056 1179.4 268.791 1182.5 320.24M1183.92 179.291C1199 38.9171 1264.38 -6.93922 1420.83 256.337C1452.58 309.764 1480.47 351.102 1504.92 382.03M1504.92 382.03C1508.91 338.523 1508.6 286.78 1505.63 233.599M1504.92 382.03C1648.14 563.218 1673.09 387.141 1662.17 191.624" stroke="black"/>
<g filter="url(#filter0_f_1_356)">
<ellipse cx="167.695" cy="440.232" rx="27.9875" ry="28.0197" fill="url(#paint0_radial_1_356)"/>
</g>
<g filter="url(#filter1_f_1_356)">
<ellipse cx="350.613" cy="729.435" rx="12.9942" ry="13.0092" fill="url(#paint1_radial_1_356)"/>
</g>
<g filter="url(#filter2_f_1_356)">
<ellipse cx="787.416" cy="257.103" rx="12.9942" ry="13.0092" fill="url(#paint2_radial_1_356)"/>
</g>
<g filter="url(#filter3_f_1_356)">
<ellipse cx="1118.27" cy="535.299" rx="7.99682" ry="8.00563" fill="url(#paint3_radial_1_356)"/>
</g>
<g filter="url(#filter4_f_1_356)">
<ellipse cx="1258.2" cy="168.04" rx="12.9942" ry="13.0092" fill="url(#paint4_radial_1_356)"/>
</g>
<defs>
<filter id="filter0_f_1_356" x="29.707" y="302.212" width="275.975" height="276.04" filterUnits="userSpaceOnUse" color-interpolation-filters="sRGB">
<feFlood flood-opacity="0" result="BackgroundImageFix"/>
<feBlend mode="normal" in="SourceGraphic" in2="BackgroundImageFix" result="shape"/>
<feGaussianBlur stdDeviation="55" result="effect1_foregroundBlur_1_356"/>
</filter>
<filter id="filter1_f_1_356" x="301.619" y="680.426" width="97.9884" height="98.0183" filterUnits="userSpaceOnUse" color-interpolation-filters="sRGB">
<feFlood flood-opacity="0" result="BackgroundImageFix"/>
<feBlend mode="normal" in="SourceGraphic" in2="BackgroundImageFix" result="shape"/>
<feGaussianBlur stdDeviation="18" result="effect1_foregroundBlur_1_356"/>
</filter>
<filter id="filter2_f_1_356" x="738.422" y="208.094" width="97.9884" height="98.0183" filterUnits="userSpaceOnUse" color-interpolation-filters="sRGB">
<feFlood flood-opacity="0" result="BackgroundImageFix"/>
<feBlend mode="normal" in="SourceGraphic" in2="BackgroundImageFix" result="shape"/>
<feGaussianBlur stdDeviation="18" result="effect1_foregroundBlur_1_356"/>
</filter>
<filter id="filter3_f_1_356" x="1074.27" y="491.293" width="87.9937" height="88.0112" filterUnits="userSpaceOnUse" color-interpolation-filters="sRGB">
<feFlood flood-opacity="0" result="BackgroundImageFix"/>
<feBlend mode="normal" in="SourceGraphic" in2="BackgroundImageFix" result="shape"/>
<feGaussianBlur stdDeviation="18" result="effect1_foregroundBlur_1_356"/>
</filter>
<filter id="filter4_f_1_356" x="1209.21" y="119.031" width="97.9884" height="98.0183" filterUnits="userSpaceOnUse" color-interpolation-filters="sRGB">
<feFlood flood-opacity="0" result="BackgroundImageFix"/>
<feBlend mode="normal" in="SourceGraphic" in2="BackgroundImageFix" result="shape"/>
<feGaussianBlur stdDeviation="18" result="effect1_foregroundBlur_1_356"/>
</filter>
<radialGradient id="paint0_radial_1_356" cx="0" cy="0" r="1" gradientUnits="userSpaceOnUse" gradientTransform="translate(167.695 440.232) rotate(90) scale(28.0197 27.9875)">
<stop offset="0.352542" stop-color="#5CE4CF"/>
<stop offset="1" stop-color="#99A9FF"/>
</radialGradient>
<radialGradient id="paint1_radial_1_356" cx="0" cy="0" r="1" gradientUnits="userSpaceOnUse" gradientTransform="translate(350.613 729.435) rotate(90) scale(13.0092 12.9942)">
<stop offset="0.352542" stop-color="#5CE4CF"/>
<stop offset="1" stop-color="#99A9FF"/>
</radialGradient>
<radialGradient id="paint2_radial_1_356" cx="0" cy="0" r="1" gradientUnits="userSpaceOnUse" gradientTransform="translate(787.416 257.103) rotate(90) scale(13.0092 12.9942)">
<stop offset="0.352542" stop-color="#5CE4CF"/>
<stop offset="1" stop-color="#99A9FF"/>
</radialGradient>
<radialGradient id="paint3_radial_1_356" cx="0" cy="0" r="1" gradientUnits="userSpaceOnUse" gradientTransform="translate(1118.27 535.299) rotate(90) scale(8.00563 7.99682)">
<stop offset="0.352542" stop-color="#5CE4CF"/>
<stop offset="1" stop-color="#99A9FF"/>
</radialGradient>
<radialGradient id="paint4_radial_1_356" cx="0" cy="0" r="1" gradientUnits="userSpaceOnUse" gradientTransform="translate(1258.2 168.04) rotate(90) scale(13.0092 12.9942)">
<stop offset="0.352542" stop-color="#5CE4CF"/>
<stop offset="1" stop-color="#99A9FF"/>
</radialGradient>
</defs>
</svg>
