<?xml version="1.0" standalone="no"?>
<!DOCTYPE svg PUBLIC "-//W3C//DTD SVG 20010904//EN"
 "http://www.w3.org/TR/2001/REC-SVG-20010904/DTD/svg10.dtd">
<svg version="1.0" xmlns="http://www.w3.org/2000/svg"
 width="2427.000000pt" height="669.000000pt" viewBox="0 0 2427.000000 669.000000"
 preserveAspectRatio="xMidYMid meet">

<g transform="translate(0.000000,669.000000) scale(0.100000,-0.100000)"
fill="#000000" stroke="none">
<path d="M1426 6659 c-96 -16 -192 -74 -296 -178 -247 -248 -468 -714 -691
-1456 -119 -394 -267 -1013 -370 -1548 -35 -179 -40 -220 -29 -227 11 -7 29
67 91 373 331 1645 722 2662 1127 2931 95 63 153 79 257 74 72 -4 95 -10 159
-42 142 -70 307 -252 457 -503 110 -185 258 -498 358 -758 29 -73 29 -78 15
-118 -32 -88 -148 -502 -204 -727 -71 -283 -152 -648 -217 -978 -40 -208 -45
-245 -33 -252 11 -7 16 -4 18 13 11 71 120 606 163 797 90 402 266 1060 299
1119 10 19 4 32 78 -174 158 -443 309 -957 502 -1716 174 -680 285 -1067 425
-1484 218 -649 444 -1138 669 -1443 69 -93 230 -250 297 -290 100 -58 162 -75
269 -70 81 3 105 8 163 35 146 69 274 197 411 412 107 167 240 448 336 714 24
64 46 117 49 117 3 0 26 -49 50 -108 65 -160 230 -492 305 -616 136 -222 299
-407 428 -484 98 -58 160 -75 269 -70 87 3 104 7 170 40 41 21 102 60 136 88
201 164 415 526 594 1007 29 79 55 143 58 143 4 0 31 -60 61 -133 72 -175 201
-435 284 -575 173 -291 373 -493 550 -554 69 -23 203 -23 272 0 279 97 557
499 799 1160 21 56 41 102 44 102 3 0 26 -51 51 -113 62 -154 216 -466 297
-600 155 -258 326 -443 480 -519 l86 -43 116 0 c109 0 120 2 181 31 266 127
514 500 745 1117 27 70 51 124 56 120 4 -4 26 -53 49 -108 194 -460 370 -757
569 -956 101 -101 128 -122 205 -160 l89 -44 117 0 c114 0 117 1 191 37 136
68 249 181 380 378 115 172 259 473 355 736 47 130 50 135 63 104 296 -706
546 -1076 820 -1213 l84 -42 116 0 c109 0 120 2 181 31 262 125 506 488 735
1097 29 76 56 138 61 138 4 1 34 -62 66 -138 32 -76 94 -210 138 -298 216
-436 419 -688 640 -794 73 -35 79 -36 190 -36 113 0 116 1 190 38 260 130 498
488 725 1090 29 76 56 138 60 138 5 0 32 -57 62 -127 114 -271 256 -543 371
-709 137 -198 261 -318 400 -388 77 -38 92 -42 177 -45 76 -4 105 0 157 17
281 93 564 510 816 1201 11 30 23 54 27 53 4 -1 40 -79 81 -173 267 -621 544
-989 812 -1079 82 -28 198 -28 278 -1 198 69 412 315 593 684 76 156 154 338
207 488 14 40 29 77 33 81 5 4 36 -59 71 -140 190 -449 434 -841 611 -984 137
-111 228 -149 354 -149 104 0 185 27 277 93 424 302 808 1266 1118 2806 27
131 40 221 39 271 -1 69 -5 52 -64 -240 -287 -1427 -624 -2340 -1004 -2721
-77 -76 -112 -104 -175 -135 -78 -38 -82 -39 -190 -39 -105 0 -115 2 -179 33
-261 128 -507 480 -773 1108 -59 139 -65 161 -56 188 163 508 273 940 393
1538 63 317 66 338 46 338 -8 0 -22 -50 -41 -152 -70 -383 -190 -907 -281
-1229 -64 -231 -137 -459 -146 -459 -9 0 -106 271 -199 555 -106 324 -225 746
-355 1255 -307 1203 -544 1937 -810 2513 -487 1052 -972 1224 -1422 502 -112
-179 -298 -596 -378 -845 -10 -30 -21 -59 -25 -63 -3 -4 -35 61 -70 145 -215
520 -442 894 -648 1064 -346 286 -674 126 -989 -482 -86 -167 -170 -362 -243
-569 -29 -82 -56 -153 -60 -158 -4 -4 -35 61 -69 145 -135 328 -310 660 -443
839 -228 309 -465 424 -684 333 -266 -111 -533 -529 -770 -1204 -20 -58 -40
-109 -44 -113 -4 -4 -33 56 -65 135 -75 188 -226 499 -313 646 -97 164 -179
272 -288 379 -209 206 -416 242 -622 106 -157 -104 -318 -323 -467 -637 -70
-146 -178 -414 -221 -548 -15 -49 -31 -88 -34 -88 -3 0 -32 64 -64 143 -311
753 -619 1159 -918 1207 -154 24 -322 -56 -471 -228 -172 -197 -370 -585 -514
-1009 -21 -62 -41 -113 -44 -113 -3 0 -23 44 -44 98 -173 440 -393 831 -579
1029 -229 243 -440 289 -662 144 -68 -44 -189 -167 -255 -261 -71 -100 -166
-271 -235 -420 -62 -137 -177 -427 -210 -532 -19 -62 -29 -71 -39 -35 -15 47
-140 338 -199 462 -221 464 -470 768 -693 846 -362 128 -728 -285 -1044 -1178
-47 -132 -69 -179 -69 -144 0 22 -138 340 -220 506 -144 294 -262 476 -404
624 -207 215 -390 266 -596 164 -100 -49 -240 -187 -337 -334 -128 -193 -291
-546 -409 -886 -16 -46 -31 -83 -34 -83 -3 0 -12 17 -19 38 -31 86 -165 390
-226 511 -133 267 -259 456 -394 594 -206 213 -386 261 -591 161 -101 -50
-239 -188 -339 -339 -129 -194 -308 -585 -406 -882 -14 -46 -30 -83 -35 -83
-4 0 -11 11 -14 24 -3 14 -40 104 -81 200 -343 806 -679 1181 -1009 1125z
m2260 -74 c64 -31 99 -58 185 -144 200 -200 386 -524 589 -1022 l67 -165 -39
-125 c-126 -404 -262 -958 -384 -1567 -58 -293 -61 -312 -41 -312 9 0 25 65
51 203 54 284 137 663 201 927 97 395 215 807 230 803 11 -2 32 -58 130 -348
153 -454 273 -873 459 -1600 207 -808 354 -1300 527 -1764 l51 -135 -47 -130
c-185 -507 -401 -885 -604 -1053 -101 -83 -177 -116 -282 -121 -154 -8 -265
44 -415 193 -264 263 -531 790 -793 1568 -151 448 -252 799 -421 1462 -203
798 -349 1293 -536 1821 l-65 180 50 140 c170 483 356 846 531 1037 75 81 170
151 242 178 42 15 73 19 144 16 83 -3 99 -7 170 -42z m1942 30 c192 -57 424
-326 629 -731 86 -169 219 -466 259 -580 l18 -52 -52 -173 c-147 -495 -277
-1036 -395 -1651 -30 -156 -32 -178 -18 -178 13 0 26 53 70 278 95 487 206
962 316 1347 77 269 90 310 99 310 9 0 41 -86 131 -350 146 -432 277 -893 474
-1662 179 -700 319 -1168 488 -1634 l74 -206 -52 -139 c-234 -631 -473 -999
-728 -1125 -55 -28 -80 -34 -152 -37 -103 -5 -166 11 -258 65 -232 137 -471
492 -711 1055 l-76 180 58 186 c125 398 236 844 344 1378 35 177 64 327 64
333 0 6 -7 11 -15 11 -8 0 -15 -2 -15 -5 0 -14 -108 -550 -141 -700 -111 -499
-299 -1170 -319 -1134 -5 8 -44 115 -88 239 -162 457 -314 978 -487 1671 -171
681 -358 1315 -527 1778 l-60 164 42 121 c246 711 519 1141 783 1237 64 23
175 25 245 4z m2008 0 c203 -60 432 -331 655 -776 68 -137 197 -432 234 -536
l18 -51 -67 -225 c-123 -415 -235 -880 -351 -1457 -57 -285 -63 -344 -35 -314
4 5 18 63 30 129 64 352 187 902 276 1240 65 250 153 547 164 558 9 10 29 -39
122 -313 151 -447 283 -904 459 -1594 207 -809 339 -1255 520 -1751 l69 -192
-61 -164 c-245 -653 -500 -1027 -767 -1120 -45 -16 -76 -20 -149 -17 -83 4
-99 7 -175 45 -260 129 -547 560 -805 1208 l-19 49 38 121 c141 439 295 1063
393 1590 14 77 28 152 31 168 4 20 2 27 -10 27 -9 0 -16 -2 -16 -5 0 -3 -29
-151 -65 -329 -99 -497 -199 -909 -314 -1287 -63 -207 -69 -225 -80 -213 -14
14 -130 342 -204 574 -127 396 -206 676 -357 1270 -207 812 -364 1346 -537
1824 l-65 179 47 136 c242 702 515 1129 780 1223 62 22 174 23 241 3z m2022
-5 c275 -96 565 -523 862 -1269 29 -73 32 -88 23 -120 -6 -20 -40 -137 -76
-261 -119 -405 -227 -857 -332 -1385 -30 -154 -57 -290 -60 -303 -5 -18 -2
-23 11 -20 13 2 30 72 89 363 82 407 130 619 215 950 66 258 167 606 179 618
10 10 72 -156 170 -455 141 -430 245 -800 425 -1503 204 -797 399 -1443 554
-1832 l21 -52 -28 -83 c-71 -209 -196 -496 -287 -661 -156 -282 -308 -452
-470 -529 -64 -31 -76 -33 -175 -33 -105 0 -106 0 -195 44 -76 38 -104 60
-194 150 -195 196 -375 500 -564 955 l-65 155 35 103 c84 246 208 711 293
1093 33 150 141 686 141 700 0 3 -7 5 -15 5 -8 0 -17 -10 -19 -22 -3 -13 -30
-149 -60 -303 -93 -475 -194 -889 -313 -1285 -68 -226 -71 -236 -83 -224 -19
19 -168 451 -265 769 -101 330 -158 537 -281 1020 -226 883 -389 1435 -564
1913 l-52 143 47 137 c116 340 267 671 394 864 122 184 265 318 383 359 73 25
182 25 256 -1z m2009 0 c214 -75 449 -366 673 -833 72 -151 191 -429 210 -494
11 -35 8 -52 -33 -183 -82 -264 -166 -580 -252 -955 -56 -243 -186 -887 -180
-893 10 -10 35 9 35 26 0 27 93 489 151 752 95 429 291 1160 310 1160 9 0 114
-295 193 -542 131 -408 234 -774 405 -1443 202 -791 361 -1317 534 -1774 l36
-93 -31 -87 c-89 -253 -238 -583 -337 -746 -150 -246 -302 -396 -460 -456 -45
-17 -73 -20 -147 -17 -83 3 -98 6 -177 46 -250 124 -518 514 -766 1113 l-61
146 31 89 c81 238 207 706 293 1090 35 157 146 704 146 721 0 2 -7 3 -15 3
-17 0 -12 19 -71 -280 -105 -539 -228 -1036 -359 -1453 -20 -65 -38 -117 -40
-117 -12 0 -179 487 -280 815 -94 309 -166 573 -309 1132 -179 698 -340 1246
-496 1683 -94 265 -92 217 -16 426 178 491 346 809 526 997 85 90 140 131 220
164 73 30 187 31 267 3z m2000 4 c276 -93 567 -512 855 -1234 l50 -124 -15
-51 c-198 -670 -345 -1283 -462 -1927 -3 -20 0 -28 10 -28 17 0 14 -12 66 255
93 482 213 993 325 1382 36 125 71 245 76 266 6 20 14 37 18 37 15 0 168 -448
278 -815 94 -308 174 -601 293 -1070 214 -838 397 -1450 560 -1869 l38 -99
-50 -135 c-115 -312 -247 -589 -370 -777 -102 -155 -246 -298 -353 -351 -71
-35 -89 -39 -169 -43 -73 -2 -100 1 -150 19 -275 100 -560 496 -831 1151 l-56
136 16 44 c131 369 334 1195 449 1832 4 23 1 28 -12 25 -13 -2 -23 -41 -50
-183 -102 -542 -251 -1151 -379 -1546 -19 -60 -38 -109 -42 -109 -4 0 -45 105
-90 233 -167 472 -288 886 -483 1651 -183 719 -313 1166 -474 1631 -48 138
-94 271 -102 297 l-16 46 43 124 c121 347 273 678 398 870 75 114 199 251 272
301 108 75 246 98 357 61z m2065 -23 c174 -86 345 -286 526 -617 78 -143 202
-412 276 -599 l48 -121 -60 -199 c-133 -442 -264 -985 -371 -1540 -23 -115
-44 -222 -47 -237 -4 -21 -2 -28 10 -28 18 0 13 -19 72 280 114 590 218 1017
391 1608 9 28 19 52 23 52 4 0 30 -64 58 -142 159 -455 310 -957 447 -1487 41
-160 109 -421 150 -581 141 -545 313 -1109 459 -1500 l53 -145 -33 -91 c-115
-318 -265 -637 -385 -819 -102 -155 -246 -298 -353 -351 -72 -35 -89 -39 -170
-42 -72 -3 -103 1 -149 17 -177 62 -368 261 -552 574 -74 127 -219 427 -283
588 l-51 125 40 125 c93 290 202 698 279 1044 46 205 150 729 145 733 -2 3
-10 2 -17 -1 -8 -3 -22 -54 -37 -133 -59 -332 -179 -862 -266 -1181 -69 -253
-157 -535 -165 -526 -13 13 -145 388 -208 588 -131 414 -199 655 -348 1239
-190 742 -302 1135 -458 1596 -57 168 -114 333 -127 368 l-24 64 43 124 c200
590 446 1022 671 1177 90 62 145 78 251 74 84 -2 103 -7 162 -36z m2002 2
c155 -74 303 -232 461 -493 107 -175 288 -559 379 -801 l18 -46 -36 -114
c-135 -439 -251 -907 -370 -1498 -84 -417 -80 -391 -62 -391 9 0 18 10 20 23
3 12 28 139 56 282 98 501 231 1056 345 1440 55 185 61 203 69 194 7 -8 104
-283 170 -488 137 -420 242 -791 421 -1490 201 -787 366 -1332 548 -1811 l24
-65 -62 -165 c-189 -501 -355 -795 -556 -984 -113 -106 -200 -148 -319 -154
-169 -8 -297 61 -473 258 -144 160 -342 510 -496 874 l-72 168 60 192 c139
442 260 938 361 1466 22 118 42 223 44 233 3 12 -1 17 -11 15 -12 -2 -31 -77
-83 -338 -70 -350 -115 -549 -182 -810 -78 -308 -198 -704 -209 -693 -9 11
-69 176 -168 463 -97 284 -227 739 -362 1265 -134 521 -253 962 -334 1230 -60
201 -218 678 -276 833 l-23 63 44 132 c100 297 253 639 370 827 129 210 259
338 400 397 46 20 69 23 145 21 77 -3 100 -8 159 -35z m1970 17 c346 -130 696
-729 1057 -1810 153 -459 270 -870 468 -1647 174 -680 316 -1159 468 -1572 41
-113 77 -217 80 -231 9 -49 -152 -457 -273 -690 -153 -294 -332 -508 -487
-585 -69 -34 -89 -39 -167 -43 -106 -5 -182 16 -277 78 -236 154 -504 575
-732 1147 l-33 81 46 139 c132 404 287 1035 386 1568 17 94 33 176 35 183 3 6
-3 12 -13 12 -14 0 -22 -26 -45 -152 -84 -459 -232 -1079 -351 -1470 -36 -120
-66 -221 -66 -225 0 -59 -156 380 -285 802 -93 303 -169 582 -294 1071 -210
822 -387 1417 -567 1906 l-28 77 23 73 c83 262 231 611 337 798 201 351 382
509 586 510 54 0 94 -6 132 -20z"/>
</g>
</svg>
