<svg width="158" height="36" viewBox="0 0 158 36" fill="none" xmlns="http://www.w3.org/2000/svg">
<path d="M43.4297 6.57031V19.6133H49.9512C51.7559 19.6133 53.2969 18.9805 54.5742 17.7148C55.8398 16.4258 56.4727 14.8848 56.4727 13.0918C56.4727 11.2988 55.8398 9.76367 54.5742 8.48633C53.2969 7.20898 51.7559 6.57031 49.9512 6.57031H43.4297ZM53.3262 20.8613C55.0723 22.0098 56.3379 23.2988 57.123 24.7285C57.9199 26.1816 58.3184 27.6055 58.3184 29H56.4199C56.4199 27.1133 55.6523 25.3906 54.1172 23.832C52.5586 22.2852 50.6895 21.5117 48.5098 21.5117H43.4297V29H41.5312V4.67188H49.9512C52.2832 4.67188 54.2695 5.49805 55.9102 7.15039C57.5625 8.79102 58.3887 10.7715 58.3887 13.0918C58.3887 14.6621 57.9785 16.1211 57.1582 17.4688C56.3613 18.7578 55.084 19.8887 53.3262 20.8613ZM76.0723 21.2656L71.2207 9.24219L66.3691 21.2656H76.0723ZM81.2578 29H79.2188L76.8457 23.1465H65.5957L63.2227 29H61.1836L71.2207 4.19727L81.2578 29ZM94.002 16.5371L102.738 29H100.418L92.8418 18.1895L85.2656 29H82.9453L91.6992 16.5371L83.3848 4.67188H85.7051L92.8594 14.8848L100.014 4.67188H102.334L94.002 16.5371ZM118.242 6.06055C115.266 6.06055 112.723 7.10938 110.613 9.20703C108.504 11.3281 107.449 13.8711 107.449 16.8359C107.449 19.8008 108.504 22.3438 110.613 24.4648C112.723 26.5625 115.266 27.6113 118.242 27.6113C121.207 27.6113 123.744 26.5625 125.854 24.4648C127.963 22.3438 129.018 19.8008 129.018 16.8359C129.018 13.8711 127.963 11.3281 125.854 9.20703C123.744 7.10938 121.207 6.06055 118.242 6.06055ZM118.242 29.4746C116.52 29.4746 114.879 29.1465 113.32 28.4902C111.809 27.8457 110.473 26.9375 109.312 25.7656C108.141 24.6055 107.232 23.2695 106.588 21.7578C105.92 20.1875 105.586 18.5469 105.586 16.8359C105.586 15.125 105.92 13.4902 106.588 11.9316C107.232 10.4082 108.141 9.06641 109.312 7.90625C110.473 6.73437 111.809 5.83203 113.32 5.19922C114.879 4.53125 116.52 4.19727 118.242 4.19727C119.953 4.19727 121.588 4.53125 123.146 5.19922C124.658 5.83203 125.994 6.73437 127.154 7.90625C128.338 9.06641 129.246 10.4082 129.879 11.9316C130.547 13.4902 130.881 15.125 130.881 16.8359C130.881 18.5469 130.547 20.1875 129.879 21.7578C129.246 23.2695 128.338 24.6055 127.154 25.7656C125.994 26.9375 124.658 27.8457 123.146 28.4902C121.588 29.1465 119.953 29.4746 118.242 29.4746ZM154.822 28.877L136.734 9.64648V29H134.836V4.84766L152.924 24.0957V4.67188H154.822V28.877Z" fill="#B8B8B8"/>
<path d="M16.2274 3.6958C15.9717 3.70048 15.728 3.80537 15.5488 3.9879C15.3696 4.17043 15.2693 4.41601 15.2693 4.6718V23.2238C15.2693 23.4826 15.3721 23.7309 15.5552 23.9139C15.7382 24.097 15.9864 24.1998 16.2453 24.1998C16.5041 24.1997 16.7523 24.0969 16.9353 23.9138C17.1182 23.7308 17.221 23.4826 17.221 23.2238V4.67193C17.221 4.54226 17.1952 4.4139 17.1451 4.29432C17.0949 4.17474 17.0215 4.06636 16.929 3.97549C16.8365 3.88463 16.7268 3.81311 16.6063 3.76511C16.4859 3.71711 16.3571 3.69359 16.2274 3.69593V3.6958ZM30.9929 9.2538C30.8658 9.25758 30.7406 9.28611 30.6244 9.3378L22.248 13.0759C22.0765 13.1533 21.931 13.2785 21.829 13.4365C21.7269 13.5945 21.6727 13.7786 21.6727 13.9667C21.6727 14.1548 21.7269 14.3388 21.829 14.4968C21.931 14.6548 22.0765 14.78 22.248 14.8574L30.6244 18.6086C30.7499 18.665 30.8858 18.6944 31.0234 18.695C31.2471 18.6951 31.4641 18.6183 31.6379 18.4775C31.8118 18.3367 31.932 18.1404 31.9784 17.9216C32.0249 17.7028 31.9947 17.4746 31.893 17.2753C31.7914 17.0761 31.6243 16.9178 31.4198 16.827L25.0385 13.9679L31.4198 11.1191C31.6555 11.013 31.8397 10.818 31.9321 10.5765C32.0245 10.3351 32.0176 10.067 31.9129 9.8306C31.8337 9.65433 31.704 9.50547 31.5403 9.4028C31.3765 9.30012 31.1861 9.24823 30.9929 9.25366V9.2538ZM0.994227 15.9631C0.843734 15.9602 0.694614 15.9922 0.558536 16.0565C0.422458 16.1209 0.303114 16.2158 0.209844 16.334C0.116574 16.4521 0.0519097 16.5902 0.0209107 16.7375C-0.0100882 16.8848 -0.00658039 17.0373 0.0311597 17.183C2.34583 26.0857 10.3976 32.3043 19.6074 32.3043C19.8663 32.3043 20.1145 32.2015 20.2976 32.0185C20.4806 31.8354 20.5834 31.5872 20.5834 31.3283C20.5834 31.0695 20.4806 30.8212 20.2976 30.6382C20.1145 30.4552 19.8663 30.3523 19.6074 30.3523C15.5632 30.3537 11.6327 29.0134 8.43188 26.5415C5.23102 24.0696 2.94059 20.6057 1.91943 16.6925C1.8658 16.4867 1.74639 16.304 1.57936 16.1724C1.41234 16.0407 1.20686 15.9672 0.994227 15.9631Z" fill="#B8B8B8"/>
</svg>
