<svg width="607" height="168" viewBox="0 0 607 168" fill="none" xmlns="http://www.w3.org/2000/svg">
<path d="M607 86.1845C594.916 153.158 572.059 202.765 545.046 133.796M545.046 133.796C540.321 121.733 535.47 106.043 530.527 86.1845C503.032 -24.2694 480.671 -11.5119 465.196 35.9752M545.046 133.796C549.625 120.387 553.573 103.893 556.768 86.1845M545.046 133.796C532.307 171.101 514.685 184.529 494.814 133.796M465.196 35.9752C460.512 50.348 456.459 67.9022 453.085 86.1845M465.196 35.9752C470.035 48.6709 475.073 65.2052 480.295 86.1845C485.238 106.043 490.09 121.733 494.814 133.796M465.196 35.9752C444.554 -18.1702 427.5 -2.49227 414.964 35.9752M494.814 133.796C499.393 120.387 503.342 103.893 506.537 86.1845M494.814 133.796C482.075 171.101 464.453 184.529 444.583 133.796M414.964 35.9752C410.28 50.3479 406.227 67.9022 402.853 86.1846M414.964 35.9752C419.804 48.6709 424.841 65.2052 430.063 86.1845C435.007 106.043 439.858 121.733 444.583 133.796M414.964 35.9752C394.322 -18.1702 377.268 -2.49227 364.732 35.9752M444.583 133.796C449.162 120.387 453.11 103.893 456.305 86.1845M444.583 133.796C431.843 171.101 414.221 184.529 394.351 133.796M364.732 35.9752C360.048 50.348 355.995 67.9022 352.622 86.1845M364.732 35.9752C369.572 48.6709 374.609 65.2052 379.832 86.1845C384.775 106.043 389.626 121.733 394.351 133.796M364.732 35.9752C344.091 -18.1702 327.036 -2.49226 314.501 35.9752M394.351 133.796C398.93 120.387 402.878 103.893 406.073 86.1845M394.351 133.796C381.612 171.101 363.99 184.529 344.119 133.796M314.501 35.9752C309.817 50.348 305.764 67.9022 302.39 86.1846M314.501 35.9752C319.34 48.6709 324.378 65.2052 329.6 86.1845C334.543 106.043 339.395 121.733 344.119 133.796M314.501 35.9752C293.859 -18.1702 276.805 -2.49226 264.269 35.9752M344.119 133.796C348.698 120.387 352.647 103.893 355.842 86.1845M344.119 133.796C331.38 171.101 313.758 184.529 293.888 133.796M264.269 35.9752C259.585 50.348 255.532 67.9022 252.158 86.1846M264.269 35.9752C269.109 48.6709 274.146 65.2052 279.368 86.1846C284.312 106.043 289.163 121.733 293.888 133.796M264.269 35.9752C243.627 -18.1702 226.573 -2.49225 214.037 35.9752M293.888 133.796C298.467 120.387 302.415 103.893 305.61 86.1846M293.888 133.796C281.148 171.101 263.526 184.529 243.656 133.796M214.037 35.9752C209.353 50.348 205.3 67.9022 201.927 86.1846M214.037 35.9752C218.877 48.6709 223.914 65.2052 229.137 86.1846C234.08 106.043 238.931 121.733 243.656 133.796M214.037 35.9752C193.396 -18.1702 176.341 -2.49225 163.806 35.9752M243.656 133.796C248.235 120.387 252.183 103.893 255.378 86.1846M243.656 133.796C230.917 171.101 213.295 184.529 193.424 133.796M163.806 35.9752C159.122 50.348 155.069 67.9022 151.695 86.1846M163.806 35.9752C168.645 48.6709 173.683 65.2052 178.905 86.1846C183.848 106.043 188.7 121.733 193.424 133.796M163.806 35.9752C143.164 -18.1702 126.11 -2.49224 113.574 35.9752M193.424 133.796C198.003 120.387 201.952 103.893 205.147 86.1846M193.424 133.796C180.685 171.101 163.063 184.529 143.193 133.796M113.574 35.9752C108.89 50.348 104.837 67.9022 101.463 86.1846M113.574 35.9752C118.414 48.6709 123.451 65.2052 128.673 86.1846C133.617 106.043 138.468 121.733 143.193 133.796M113.574 35.9752C92.9323 -18.1702 75.8781 -2.49224 63.3422 35.9753M143.193 133.796C147.772 120.387 151.72 103.893 154.915 86.1846M143.193 133.796C127.424 179.971 104.176 189.565 78.4415 86.1846C73.2192 65.2052 68.1821 48.6709 63.3422 35.9753M63.3422 35.9753C58.6584 50.348 54.6054 67.9022 51.2317 86.1846M63.3422 35.9753C34.9883 -38.4007 13.4031 18.9708 0.999993 86.1846" stroke="black" stroke-opacity="0.5"/>
</svg>
