<svg width="148" height="36" viewBox="0 0 148 36" fill="none" xmlns="http://www.w3.org/2000/svg">
<path d="M60.707 4.67188V6.57031H51.7773V29H49.8789V6.57031H40.8438V4.67188H60.707ZM64.1523 29V4.67188H66.0508V29H64.1523ZM91.0996 28.877L73.0117 9.64648V29H71.1133V4.84766L89.2012 24.0957V4.67188H91.0996V28.877ZM104.107 27.1016C106.92 27.0898 109.334 26.0879 111.35 24.0957C113.354 22.0801 114.355 19.6602 114.355 16.8359C114.355 14.0117 113.354 11.5918 111.35 9.57617C109.334 7.57227 106.92 6.57031 104.107 6.57031H97.8145V27.1016H104.107ZM96.0742 29V4.67188H104.09C105.742 4.67188 107.318 4.99414 108.818 5.63867C110.271 6.24805 111.561 7.11523 112.686 8.24023C113.811 9.36523 114.678 10.6543 115.287 12.1074C115.932 13.6074 116.254 15.1836 116.254 16.8359C116.254 18.4766 115.932 20.0527 115.287 21.5645C114.678 23.0176 113.805 24.3008 112.668 25.4141C111.555 26.5508 110.271 27.4238 108.818 28.0332C107.307 28.6777 105.73 29 104.09 29H96.0742ZM132.883 6.06055C129.906 6.06055 127.363 7.10938 125.254 9.20703C123.145 11.3281 122.09 13.8711 122.09 16.8359C122.09 19.8008 123.145 22.3438 125.254 24.4648C127.363 26.5625 129.906 27.6113 132.883 27.6113C135.848 27.6113 138.385 26.5625 140.494 24.4648C142.604 22.3438 143.658 19.8008 143.658 16.8359C143.658 13.8711 142.604 11.3281 140.494 9.20703C138.385 7.10938 135.848 6.06055 132.883 6.06055ZM132.883 29.4746C131.16 29.4746 129.52 29.1465 127.961 28.4902C126.449 27.8457 125.113 26.9375 123.953 25.7656C122.781 24.6055 121.873 23.2695 121.229 21.7578C120.561 20.1875 120.227 18.5469 120.227 16.8359C120.227 15.125 120.561 13.4902 121.229 11.9316C121.873 10.4082 122.781 9.06641 123.953 7.90625C125.113 6.73437 126.449 5.83203 127.961 5.19922C129.52 4.53125 131.16 4.19727 132.883 4.19727C134.594 4.19727 136.229 4.53125 137.787 5.19922C139.299 5.83203 140.635 6.73437 141.795 7.90625C142.979 9.06641 143.887 10.4082 144.52 11.9316C145.188 13.4902 145.521 15.125 145.521 16.8359C145.521 18.5469 145.188 20.1875 144.52 21.7578C143.887 23.2695 142.979 24.6055 141.795 25.7656C140.635 26.9375 139.299 27.8457 137.787 28.4902C136.229 29.1465 134.594 29.4746 132.883 29.4746Z" fill="#B8B8B8"/>
<path d="M14.1165 9.50001C13.8058 11.6715 12.0882 13.3892 9.91667 13.6998V22.3002C12.3195 22.6439 14.1667 24.7104 14.1667 27.2083C14.1667 29.9468 11.9467 32.1667 9.20833 32.1667C6.46992 32.1667 4.25 29.9468 4.25 27.2083C4.25 24.7104 6.09713 22.6439 8.5 22.3002V13.6998C6.09713 13.3561 4.25 11.2896 4.25 8.79168C4.25 6.05327 6.46992 3.83334 9.20833 3.83334C11.7063 3.83334 13.7728 5.68047 14.1165 8.08334H20.5417C24.0625 8.08334 26.9167 10.9375 26.9167 14.4583V15.2169C29.3195 15.5606 31.1667 17.6271 31.1667 20.125C31.1667 22.8634 28.9467 25.0833 26.2083 25.0833C23.4699 25.0833 21.25 22.8634 21.25 20.125C21.25 17.6271 23.0971 15.5606 25.5 15.2169V14.4583C25.5 11.7199 23.2801 9.50001 20.5417 9.50001H14.1165ZM5.66667 8.79168C5.66667 10.7477 7.25233 12.3333 9.20833 12.3333C11.1643 12.3333 12.75 10.7477 12.75 8.79168C12.75 6.83567 11.1643 5.25001 9.20833 5.25001C7.25233 5.25001 5.66667 6.83567 5.66667 8.79168ZM5.66667 27.2083C5.66667 29.1644 7.25233 30.75 9.20833 30.75C11.1643 30.75 12.75 29.1644 12.75 27.2083C12.75 25.2523 11.1643 23.6667 9.20833 23.6667C7.25233 23.6667 5.66667 25.2523 5.66667 27.2083ZM26.2083 16.5833C24.2523 16.5833 22.6667 18.169 22.6667 20.125C22.6667 22.081 24.2523 23.6667 26.2083 23.6667C28.1643 23.6667 29.75 22.081 29.75 20.125C29.75 18.169 28.1643 16.5833 26.2083 16.5833Z" fill="#B8B8B8"/>
</svg>
