<svg width="108" height="407" viewBox="0 0 108 407" fill="none" xmlns="http://www.w3.org/2000/svg">
<path d="M-51.7944 1.36434C-94.2197 21.3774 -123.157 45.4836 -72.4101 51.2116M-72.4101 51.2116C-63.5345 52.2134 -52.2215 52.653 -38.1167 52.4102C40.3342 51.0598 35.8404 68.2614 6.99425 87.0619M-72.4101 51.2116C-64.3021 45.7631 -54.0277 40.1854 -42.8102 34.8939M-72.4101 51.2116C-94.9671 66.3697 -100.755 80.5277 -63.4259 84.7411M6.99425 87.0619C-1.73648 92.7522 -12.698 98.589 -24.2659 104.102M6.99425 87.0619C-2.32333 86.096 -14.2318 85.6832 -29.1325 85.9397C-43.2372 86.1825 -54.5503 85.7429 -63.4259 84.7411M6.99425 87.0619C46.7327 91.1815 39.3456 105.362 15.9785 120.591M-63.4259 84.7411C-55.3179 79.2926 -45.0434 73.7149 -33.826 68.4234M-63.4259 84.7411C-85.9829 99.8992 -91.7708 114.057 -54.4417 118.271M15.9785 120.591C7.24774 126.282 -3.71384 132.119 -15.2817 137.632M15.9785 120.591C6.66088 119.626 -5.24755 119.213 -20.1483 119.469C-34.253 119.712 -45.5661 119.272 -54.4417 118.271M15.9785 120.591C55.7169 124.711 48.3298 138.891 24.9627 154.121M-54.4417 118.271C-46.3337 112.822 -36.0592 107.244 -24.8418 101.953M-54.4417 118.271C-76.9987 133.429 -82.7866 147.587 -45.4575 151.8M24.9627 154.121C16.2319 159.811 5.27038 165.648 -6.29748 171.161M24.9627 154.121C15.6451 153.155 3.73666 152.742 -11.1641 152.999C-25.2688 153.242 -36.5819 152.802 -45.4575 151.8M24.9627 154.121C64.7011 158.24 57.314 172.421 33.9469 187.65M-45.4575 151.8C-37.3495 146.352 -27.075 140.774 -15.8576 135.482M-45.4575 151.8C-68.0145 166.958 -73.8024 181.116 -36.4732 185.33M33.9469 187.65C25.2162 193.341 14.2546 199.178 2.68673 204.691M33.9469 187.65C24.6293 186.685 12.7209 186.272 -2.1799 186.528C-16.2846 186.771 -27.5977 186.331 -36.4732 185.33M33.9469 187.65C73.6853 191.77 66.2982 205.95 42.9311 221.18M-36.4732 185.33C-28.3653 179.881 -18.0908 174.303 -6.87339 169.012M-36.4732 185.33C-59.0303 200.488 -64.8182 214.646 -27.489 218.859M42.9311 221.18C34.2004 226.87 23.2388 232.707 11.6709 238.22M42.9311 221.18C33.6135 220.214 21.7051 219.801 6.80431 220.058C-7.30041 220.301 -18.6135 219.861 -27.489 218.859M42.9311 221.18C82.6696 225.3 75.2824 239.48 51.9153 254.71M-27.489 218.859C-19.3811 213.411 -9.10661 207.833 2.11082 202.541M-27.489 218.859C-50.046 234.017 -55.834 248.175 -18.5048 252.389M51.9153 254.71C43.1846 260.4 32.223 266.237 20.6551 271.75M51.9153 254.71C42.5977 253.744 30.6893 253.331 15.7885 253.587C1.6838 253.83 -9.62926 253.39 -18.5048 252.389M51.9153 254.71C91.6538 258.829 84.2666 273.009 60.8995 288.239M-18.5048 252.389C-10.3969 246.94 -0.122397 241.363 11.095 236.071M-18.5048 252.389C-41.0618 267.547 -46.8498 281.705 -9.52062 285.918M60.8995 288.239C52.1688 293.929 41.2072 299.766 29.6394 305.279M60.8995 288.239C51.5819 287.273 39.6735 286.86 24.7727 287.117C10.668 287.36 -0.645052 286.92 -9.52062 285.918M60.8995 288.239C100.638 292.359 93.2508 306.539 69.8837 321.769M-9.52062 285.918C-1.41267 280.47 8.86181 274.892 20.0792 269.6M-9.52062 285.918C-32.0776 301.076 -37.8656 315.234 -0.536408 319.448M69.8837 321.769C61.153 327.459 50.1914 333.296 38.6236 338.809M69.8837 321.769C60.5661 320.803 48.6577 320.39 33.7569 320.646C19.6522 320.889 8.33916 320.45 -0.536408 319.448M69.8837 321.769C109.622 325.888 102.235 340.068 78.8679 355.298M-0.536408 319.448C7.57154 313.999 17.846 308.422 29.0634 303.13M-0.536408 319.448C-28.4567 338.21 -30.6858 355.44 42.7411 354.176C57.6419 353.919 69.5503 354.332 78.8679 355.298M78.8679 355.298C70.1372 360.988 59.1756 366.825 47.6078 372.338M78.8679 355.298C133.454 360.957 99.1203 385.599 56.592 405.868" stroke="black"/>
</svg>
