<svg width="315" height="294" viewBox="0 0 315 294" fill="none" xmlns="http://www.w3.org/2000/svg">
<path d="M289.683 0.732549C316.379 35.2625 330.136 67.5481 285.573 51.0251M285.573 51.0251C277.779 48.1353 268.201 43.7524 256.596 37.6274C192.049 3.55978 188.456 19.8148 204.396 47.6304M285.573 51.0251C281.162 43.0698 275.008 34.0968 267.95 24.9669M285.573 51.0251C297.843 73.1576 296.62 87.4137 263.839 75.2595M204.396 47.6304C209.221 56.0492 215.835 65.5271 223.09 74.9892M204.396 47.6304C212.542 50.7358 222.603 55.3911 234.862 61.8618C246.467 67.9868 256.045 72.3697 263.839 75.2595M204.396 47.6304C169.656 34.3861 169.75 49.3324 182.663 71.8648M263.839 75.2595C259.429 67.3042 253.275 58.3312 246.216 49.2013M263.839 75.2595C276.11 97.392 274.887 111.648 242.106 99.4939M182.663 71.8648C187.487 80.2836 194.101 89.7615 201.356 99.2236M182.663 71.8648C190.808 74.9702 200.869 79.6255 213.129 86.0962C224.734 92.2212 234.312 96.6041 242.106 99.4939M182.663 71.8648C147.922 58.6205 148.017 73.5668 160.929 96.0992M242.106 99.4939C237.696 91.5386 231.542 82.5656 224.483 73.4357M242.106 99.4939C254.377 121.626 253.153 135.883 220.373 123.728M160.929 96.0992C165.754 104.518 172.368 113.996 179.623 123.458M160.929 96.0992C169.075 99.2046 179.136 103.86 191.396 110.331C203.001 116.456 212.579 120.838 220.373 123.728M160.929 96.0992C126.189 82.8549 126.283 97.8012 139.196 120.334M220.373 123.728C215.962 115.773 209.808 106.8 202.75 97.6701M220.373 123.728C232.643 145.861 231.42 160.117 198.639 147.963M139.196 120.334C144.021 128.752 150.635 138.23 157.89 147.692M139.196 120.334C147.342 123.439 157.403 128.094 169.662 134.565C181.267 140.69 190.845 145.073 198.639 147.963M139.196 120.334C104.456 107.089 104.55 122.036 117.463 144.568M198.639 147.963C194.229 140.007 188.075 131.034 181.016 121.905M198.639 147.963C210.91 170.095 209.687 184.351 176.906 172.197M117.463 144.568C122.287 152.987 128.901 162.465 136.156 171.927M117.463 144.568C125.608 147.673 135.669 152.329 147.929 158.799C159.534 164.924 169.112 169.307 176.906 172.197M117.463 144.568C82.7221 131.324 82.8167 146.27 95.7293 168.802M176.906 172.197C172.495 164.242 166.341 155.269 159.283 146.139M176.906 172.197C189.177 194.33 187.953 208.586 155.173 196.432M95.7293 168.802C100.554 177.221 107.168 186.699 114.423 196.161M95.7293 168.802C103.875 171.908 113.936 176.563 126.196 183.034C137.801 189.159 147.379 193.542 155.173 196.432M95.7293 168.802C60.9888 155.558 61.0833 170.504 73.9959 193.037M155.173 196.432C150.762 188.476 144.608 179.503 137.55 170.373M155.173 196.432C167.443 218.564 166.22 232.82 133.439 220.666M73.9959 193.037C78.8205 201.456 85.4346 210.933 92.6896 220.396M73.9959 193.037C82.1416 196.142 92.2025 200.797 104.462 207.268C116.067 213.393 125.645 217.776 133.439 220.666M73.9959 193.037C39.2554 179.793 39.3499 194.739 52.2626 217.271M133.439 220.666C129.029 212.711 122.875 203.738 115.816 194.608M133.439 220.666C145.71 242.798 144.487 257.055 111.706 244.9M52.2626 217.271C57.0872 225.69 63.7012 235.168 70.9563 244.63M52.2626 217.271C60.4083 220.377 70.4691 225.032 82.7289 231.503C94.3338 237.628 103.912 242.01 111.706 244.9M52.2626 217.271C17.522 204.027 17.6166 218.973 30.5292 241.506M111.706 244.9C107.295 236.945 101.141 227.972 94.0828 218.842M111.706 244.9C126.894 272.295 121.409 287.623 60.9956 255.737C48.7358 249.266 38.6749 244.611 30.5292 241.506M30.5292 241.506C35.3538 249.924 41.9678 259.402 49.2229 268.864M30.5292 241.506C-17.1915 223.313 0.816868 258.312 27.4895 293.099" stroke="url(#paint0_linear_1_270)"/>
<defs>
<linearGradient id="paint0_linear_1_270" x1="83.6633" y1="164.77" x2="265.601" y2="89.9217" gradientUnits="userSpaceOnUse">
<stop stop-color="#99A9FF"/>
<stop offset="1" stop-color="#5CE5CF"/>
</linearGradient>
</defs>
</svg>
