<svg width="152" height="555" viewBox="0 0 152 555" fill="none" xmlns="http://www.w3.org/2000/svg">
<path d="M66.2737 554.098C8.22057 526.724 -31.3792 493.758 38.0518 485.942M38.0518 485.942C50.1952 484.575 65.6738 483.978 84.9722 484.314C192.31 486.184 186.157 462.665 146.683 436.953M38.0518 485.942C49.1469 493.394 63.2063 501.022 78.5558 508.26M38.0518 485.942C7.18434 465.212 -0.739165 445.854 50.334 440.104M146.683 436.953C134.736 429.171 119.736 421.187 103.907 413.646M146.683 436.953C133.935 438.271 117.642 438.831 97.2544 438.476C77.956 438.14 62.4774 438.738 50.334 440.104M146.683 436.953C201.053 431.333 190.941 411.944 158.965 391.115M50.334 440.104C61.4291 447.556 75.4885 455.185 90.838 462.422M50.334 440.104C19.4665 419.374 11.543 400.016 62.6161 394.267M158.965 391.115C147.018 383.333 132.019 375.35 116.19 367.809M158.965 391.115C146.217 392.433 129.924 392.994 109.537 392.639C90.2381 392.302 74.7595 392.9 62.6161 394.267M158.965 391.115C213.335 385.495 203.224 366.106 171.248 345.278M62.6161 394.267C73.7112 401.718 87.7707 409.347 103.12 416.585M62.6161 394.267C31.7487 373.536 23.8252 354.178 74.8983 348.429M171.248 345.278C159.3 337.495 144.301 329.512 128.472 321.971M171.248 345.278C158.499 346.595 142.206 347.156 121.819 346.801C102.52 346.465 87.0417 347.062 74.8983 348.429M171.248 345.278C225.617 339.658 215.506 320.268 183.53 299.44M74.8983 348.429C85.9934 355.881 100.053 363.509 115.402 370.747M74.8983 348.429C44.0308 327.699 36.1073 308.341 87.1805 302.592M183.53 299.44C171.583 291.658 156.583 283.675 140.754 276.134M183.53 299.44C170.782 300.758 154.488 301.318 134.101 300.963C114.802 300.627 99.3239 301.225 87.1805 302.592M183.53 299.44C237.899 293.82 227.788 274.431 195.812 253.602M87.1805 302.592C98.2756 310.043 112.335 317.672 127.684 324.91M87.1805 302.592C56.313 281.861 48.3895 262.503 99.4626 256.754M195.812 253.602C183.865 245.82 168.865 237.837 153.036 230.296M195.812 253.602C183.064 254.92 166.771 255.481 146.383 255.126C127.085 254.789 111.606 255.387 99.4626 256.754M195.812 253.602C250.182 247.982 240.07 228.593 208.094 207.765M99.4626 256.754C110.558 264.205 124.617 271.834 139.967 279.072M99.4626 256.754C68.5951 236.023 60.6716 216.665 111.745 210.916M208.094 207.765C196.147 199.982 181.147 191.999 165.318 184.458M208.094 207.765C195.346 209.082 179.053 209.643 158.665 209.288C139.367 208.952 123.888 209.549 111.745 210.916M208.094 207.765C262.464 202.145 252.352 182.756 220.376 161.927M111.745 210.916C122.84 218.368 136.899 225.996 152.249 233.234M111.745 210.916C80.8773 190.186 72.9538 170.828 124.027 165.079M220.376 161.927C208.429 154.145 193.429 146.162 177.6 138.621M220.376 161.927C207.628 163.245 191.335 163.806 170.947 163.45C151.649 163.114 136.17 163.712 124.027 165.079M220.376 161.927C274.746 156.307 264.634 136.918 232.658 116.089M124.027 165.079C135.122 172.53 149.181 180.159 164.531 187.397M124.027 165.079C93.1595 144.348 85.2359 124.99 136.309 119.241M232.658 116.089C220.711 108.307 205.712 100.324 189.883 92.783M232.658 116.089C219.91 117.407 203.617 117.968 183.229 117.613C163.931 117.276 148.453 117.874 136.309 119.241M232.658 116.089C287.028 110.469 276.917 91.0803 244.941 70.2518M136.309 119.241C147.404 126.692 161.464 134.321 176.813 141.559M136.309 119.241C98.1024 93.5815 95.0473 70.0248 195.512 71.775C215.899 72.1302 232.192 71.5695 244.941 70.2518M244.941 70.2518C232.993 62.4695 217.994 54.4864 202.165 46.9454M244.941 70.2518C319.624 62.532 272.641 28.8316 214.447 1.10776" stroke="black"/>
</svg>
