<svg width="144" height="519" viewBox="0 0 144 519" fill="none" xmlns="http://www.w3.org/2000/svg">
<path d="M61.8606 517.713C7.55826 492.108 -29.483 461.272 35.4622 453.961M35.4622 453.961C46.821 452.682 61.2995 452.123 79.3511 452.438C179.754 454.187 173.998 432.188 137.075 408.137M35.4622 453.961C45.8404 460.931 58.9915 468.067 73.3492 474.837M35.4622 453.961C6.58898 434.57 -0.82259 416.463 46.9508 411.085M137.075 408.137C125.9 400.857 111.869 393.39 97.063 386.336M137.075 408.137C125.151 409.369 109.91 409.894 90.8397 409.562C72.7882 409.247 58.3096 409.806 46.9508 411.085M137.075 408.137C187.932 402.88 178.474 384.744 148.564 365.261M46.9508 411.085C57.329 418.055 70.4801 425.191 84.8379 431.961M46.9508 411.085C18.0776 391.694 10.666 373.586 58.4394 368.209M148.564 365.261C137.388 357.981 123.358 350.514 108.552 343.46M148.564 365.261C136.639 366.493 121.399 367.018 102.328 366.686C84.2768 366.371 69.7982 366.93 58.4394 368.209M148.564 365.261C199.421 360.004 189.962 341.867 160.052 322.385M58.4394 368.209C68.8177 375.179 81.9687 382.315 96.3265 389.085M58.4394 368.209C29.5662 348.818 22.1547 330.71 69.928 325.333M160.052 322.385C148.877 315.105 134.847 307.638 120.04 300.584M160.052 322.385C148.128 323.617 132.887 324.142 113.817 323.809C95.7654 323.495 81.2869 324.054 69.928 325.333M160.052 322.385C210.909 317.128 201.451 298.991 171.541 279.508M69.928 325.333C80.3063 332.303 93.4574 339.438 107.815 346.209M69.928 325.333C41.0549 305.941 33.6433 287.834 81.4167 282.456M171.541 279.508C160.366 272.229 146.335 264.762 131.529 257.708M171.541 279.508C159.616 280.741 144.376 281.266 125.306 280.933C107.254 280.619 92.7755 281.178 81.4167 282.456M171.541 279.508C222.398 274.252 212.94 256.115 183.03 236.632M81.4167 282.456C91.7949 289.426 104.946 296.562 119.304 303.332M81.4167 282.456C52.5435 263.065 45.1319 244.958 92.9053 239.58M183.03 236.632C171.854 229.353 157.824 221.886 143.017 214.832M183.03 236.632C171.105 237.865 155.865 238.389 136.794 238.057C118.743 237.743 104.264 238.302 92.9053 239.58M183.03 236.632C233.886 231.375 224.428 213.239 194.518 193.756M92.9053 239.58C103.284 246.55 116.435 253.686 130.792 260.456M92.9053 239.58C64.0321 220.189 56.6205 202.082 104.394 196.704M194.518 193.756C183.343 186.477 169.312 179.009 154.506 171.956M194.518 193.756C182.594 194.989 167.353 195.513 148.283 195.181C130.231 194.867 115.753 195.426 104.394 196.704M194.518 193.756C245.375 188.499 235.917 170.363 206.007 150.88M104.394 196.704C114.772 203.674 127.923 210.81 142.281 217.58M104.394 196.704C75.5207 177.313 68.1092 159.206 115.883 153.828M206.007 150.88C194.832 143.601 180.801 136.133 165.995 129.079M206.007 150.88C194.082 152.113 178.842 152.637 159.771 152.305C141.72 151.99 127.241 152.549 115.883 153.828M206.007 150.88C256.864 145.623 247.406 127.487 217.496 108.004M115.883 153.828C126.261 160.798 139.412 167.934 153.77 174.704M115.883 153.828C87.0094 134.437 79.5978 116.33 127.371 110.952M217.496 108.004C206.32 100.724 192.29 93.2571 177.483 86.2034M217.496 108.004C205.571 109.237 190.33 109.761 171.26 109.429C153.209 109.114 138.73 109.673 127.371 110.952M217.496 108.004C268.352 102.747 258.894 84.6106 228.984 65.1278M127.371 110.952C137.749 117.922 150.9 125.058 165.258 131.828M127.371 110.952C91.633 86.9502 88.7753 64.9155 182.749 66.5527C201.819 66.8849 217.06 66.3604 228.984 65.1278M228.984 65.1278C217.809 57.8483 203.778 50.381 188.972 43.3272M228.984 65.1278C298.843 57.9068 254.895 26.3837 200.461 0.451085" stroke="black"/>
</svg>
