<svg width="144" height="519" viewBox="0 0 144 519" fill="none" xmlns="http://www.w3.org/2000/svg">
<path d="M61.8607 517.713C7.55839 492.107 -29.4829 461.271 35.4623 453.961M35.4623 453.961C46.8211 452.682 61.2997 452.123 79.3512 452.438C179.754 454.187 173.998 432.188 137.075 408.137M35.4623 453.961C45.8405 460.931 58.9916 468.067 73.3494 474.837M35.4623 453.961C6.58911 434.57 -0.822468 416.462 46.9509 411.085M137.075 408.137C125.9 400.857 111.869 393.39 97.0631 386.336M137.075 408.137C125.151 409.369 109.91 409.894 90.8398 409.561C72.7883 409.247 58.3097 409.806 46.9509 411.085M137.075 408.137C187.932 402.88 178.474 384.743 148.564 365.26M46.9509 411.085C57.3291 418.055 70.4802 425.19 84.838 431.961M46.9509 411.085C18.0777 391.693 10.6662 373.586 58.4395 368.208M148.564 365.26C137.389 357.981 123.358 350.514 108.552 343.46M148.564 365.26C136.639 366.493 121.399 367.018 102.328 366.685C84.2769 366.371 69.7984 366.93 58.4395 368.208M148.564 365.26C199.421 360.004 189.963 341.867 160.053 322.384M58.4395 368.208C68.8178 375.178 81.9689 382.314 96.3266 389.085M58.4395 368.208C29.5664 348.817 22.1548 330.71 69.9282 325.332M160.053 322.384C148.877 315.105 134.847 307.638 120.04 300.584M160.053 322.384C148.128 323.617 132.887 324.141 113.817 323.809C95.7655 323.495 81.287 324.054 69.9282 325.332M160.053 322.384C210.909 317.127 201.451 298.991 171.541 279.508M69.9282 325.332C80.3064 332.302 93.4575 339.438 107.815 346.208M69.9282 325.332C41.055 305.941 33.6434 287.834 81.4168 282.456M171.541 279.508C160.366 272.229 146.335 264.761 131.529 257.708M171.541 279.508C159.617 280.741 144.376 281.265 125.306 280.933C107.254 280.619 92.7756 281.178 81.4168 282.456M171.541 279.508C222.398 274.251 212.94 256.115 183.03 236.632M81.4168 282.456C91.795 289.426 104.946 296.562 119.304 303.332M81.4168 282.456C52.5436 263.065 45.132 244.958 92.9054 239.58M183.03 236.632C171.854 229.353 157.824 221.885 143.018 214.832M183.03 236.632C171.105 237.865 155.865 238.389 136.794 238.057C118.743 237.742 104.264 238.301 92.9054 239.58M183.03 236.632C233.887 231.375 224.428 213.239 194.518 193.756M92.9054 239.58C103.284 246.55 116.435 253.686 130.793 260.456M92.9054 239.58C64.0322 220.189 56.6207 202.082 104.394 196.704M194.518 193.756C183.343 186.477 169.313 179.009 154.506 171.955M194.518 193.756C182.594 194.989 167.353 195.513 148.283 195.181C130.231 194.866 115.753 195.425 104.394 196.704M194.518 193.756C245.375 188.499 235.917 170.363 206.007 150.88M104.394 196.704C114.772 203.674 127.923 210.81 142.281 217.58M104.394 196.704C75.5209 177.313 68.1093 159.205 115.883 153.828M206.007 150.88C194.832 143.6 180.801 136.133 165.995 129.079M206.007 150.88C194.082 152.112 178.842 152.637 159.772 152.305C141.72 151.99 127.242 152.549 115.883 153.828M206.007 150.88C256.864 145.623 247.406 127.486 217.496 108.004M115.883 153.828C126.261 160.798 139.412 167.934 153.77 174.704M115.883 153.828C87.0095 134.437 79.5979 116.329 127.371 110.952M217.496 108.004C206.32 100.724 192.29 93.2569 177.483 86.2031M217.496 108.004C205.571 109.236 190.331 109.761 171.26 109.429C153.209 109.114 138.73 109.673 127.371 110.952M217.496 108.004C268.352 102.747 258.894 84.6104 228.984 65.1275M127.371 110.952C137.75 117.922 150.901 125.058 165.258 131.828M127.371 110.952C91.6331 86.95 88.7754 64.9152 182.749 66.5524C201.819 66.8847 217.06 66.3601 228.984 65.1275M228.984 65.1275C217.809 57.8481 203.778 50.3808 188.972 43.327M228.984 65.1275C298.843 57.9065 254.895 26.3835 200.461 0.450841" stroke="black"/>
</svg>
